<?xml version="1.0" encoding="UTF-8" standalone="no"?>

<svg xmlns="http://www.w3.org/2000/svg" version="1.1" viewBox="0.00 0.00 454.00 130.00">
<g stroke-width="2.00" fill="none" stroke-linecap="butt">
<path stroke="#3d69ad" vector-effect="non-scaling-stroke" d="
  M 69.44 50.61
  Q 60.28 51.07 50.42 49.77"
/>
<path stroke="#8c7a5f" vector-effect="non-scaling-stroke" d="
  M 118.54 96.37
  L 99.99 95.67"
/>
</g>
<path fill="#5993d3" d="
  M 69.44 50.61
  Q 60.28 51.07 50.42 49.77
  L 59.58 33.06
  A 1.06 1.04 -75.5 0 1 60.50 32.51
  L 79.50 32.40
  Q 80.22 32.39 79.86 33.01
  L 69.44 50.61
  Z"
/>
<path fill="#203e87" d="
  M 89.65 32.27
  L 106.89 32.24
  A 0.32 0.32 0.0 0 1 107.17 32.40
  L 130.60 73.83
  A 0.32 0.32 0.0 0 1 130.61 74.13
  L 121.98 90.37
  A 0.32 0.32 0.0 0 1 121.41 90.38
  L 89.37 32.74
  A 0.32 0.32 0.0 0 1 89.65 32.27
  Z"
/>
<path fill="#f7b636" d="
  M 118.54 96.37
  L 99.99 95.67
  L 77.60 54.76
  A 2.65 2.65 0.0 0 1 77.63 52.14
  L 85.36 38.96
  A 0.62 0.62 0.0 0 1 86.22 38.74
  Q 86.92 39.17 87.44 40.11
  Q 102.45 67.13 117.89 93.91
  C 118.31 94.64 118.36 95.54 118.54 96.37
  Z"
/>
<rect fill="#f7b636" x="-4.12" y="-3.74" transform="translate(418.52,50.66) rotate(0.9)" width="8.24" height="7.48" rx="1.38"/>
<path fill="#f7b636" d="
  M 149.55 81.00
  L 166.27 81.01
  A 1.05 1.05 0.0 0 1 167.32 82.05
  L 167.38 87.37
  A 1.05 1.05 0.0 0 1 166.33 88.43
  L 141.22 88.50
  A 1.05 1.05 0.0 0 1 140.17 87.45
  L 140.18 48.91
  A 1.05 1.05 0.0 0 1 141.23 47.86
  L 147.45 47.86
  A 1.05 1.05 0.0 0 1 148.50 48.91
  L 148.50 79.95
  A 1.05 1.05 0.0 0 0 149.55 81.00
  Z"
/>
<path fill="#f7b636" d="
  M 272.76 78.24
  C 272.76 81.33 274.38 81.80 277.04 82.13
  Q 277.65 82.20 277.67 82.82
  L 277.77 87.63
  Q 277.78 88.25 277.18 88.41
  C 267.63 90.94 265.00 86.42 264.85 77.90
  Q 264.59 63.28 264.80 48.64
  Q 264.81 47.88 265.57 47.89
  L 272.33 47.92
  A 0.47 0.46 0.6 0 1 272.79 48.38
  Q 272.74 63.39 272.76 78.24
  Z"
/>
<path fill="#f7b636" d="
  M 290.20 76.48
  L 290.27 87.82
  A 0.60 0.59 -90.0 0 1 289.68 88.42
  L 282.91 88.46
  Q 282.24 88.46 282.24 87.79
  L 282.17 48.37
  A 0.46 0.46 0.0 0 1 282.63 47.91
  Q 293.48 47.98 304.50 47.98
  C 308.58 47.98 311.42 49.80 312.30 54.03
  Q 314.02 62.31 312.03 70.53
  C 311.50 72.74 310.09 74.06 308.22 75.05
  A 1.44 1.43 -26.9 0 0 307.60 76.94
  L 312.84 87.91
  Q 313.06 88.37 312.55 88.37
  L 305.03 88.46
  A 1.00 1.00 0.0 0 1 304.10 87.87
  L 298.85 76.35
  A 0.84 0.82 -12.0 0 0 298.09 75.87
  L 290.77 75.90
  Q 290.20 75.90 290.20 76.48
  Z
  M 304.6984 57.0327
  A 1.95 1.95 0.0 0 0 302.7518 55.0793
  L 292.1518 55.0608
  A 1.95 1.95 0.0 0 0 290.1984 57.0074
  L 290.1816 66.6073
  A 1.95 1.95 0.0 0 0 292.1282 68.5607
  L 302.7282 68.5792
  A 1.95 1.95 0.0 0 0 304.6816 66.6326
  L 304.6984 57.0327
  Z"
/>
<path fill="#f7b636" d="
  M 388.63 58.32
  C 395.90 57.40 406.08 54.96 406.41 64.50
  Q 406.80 75.96 406.59 87.59
  A 0.93 0.93 0.0 0 1 405.64 88.50
  L 399.30 88.39
  A 0.60 0.59 0.5 0 1 398.71 87.80
  L 398.72 66.99
  A 2.81 2.80 88.2 0 0 395.74 64.19
  L 388.78 64.63
  A 0.84 0.83 88.2 0 0 388.00 65.47
  L 387.99 87.80
  A 0.55 0.55 0.0 0 1 387.45 88.35
  L 381.14 88.48
  Q 380.02 88.51 380.02 87.39
  L 379.99 48.48
  A 0.64 0.64 0.0 0 1 380.64 47.84
  L 387.24 47.98
  Q 387.99 47.99 387.99 48.74
  L 388.00 57.76
  Q 388.00 58.40 388.63 58.32
  Z"
/>
<path fill="#203e87" d="
  M 50.42 49.77
  Q 60.28 51.07 69.44 50.61
  L 91.90 91.63
  A 2.51 2.50 46.1 0 1 91.86 94.10
  L 83.94 107.49
  A 0.45 0.44 -44.8 0 1 83.17 107.49
  L 50.42 49.77
  Z"
/>
<path fill="#5993d3" d="
  M 48.36 56.62
  L 79.56 112.96
  A 0.54 0.54 0.0 0 1 79.09 113.76
  L 62.58 113.91
  A 0.54 0.54 0.0 0 1 62.10 113.63
  L 39.04 72.64
  A 0.54 0.54 0.0 0 1 39.03 72.12
  L 47.41 56.63
  A 0.54 0.54 0.0 0 1 48.36 56.62
  Z"
/>
<path fill="#f7b636" d="
  M 179.24 77.45
  C 177.88 81.01 179.92 82.37 183.20 82.27
  Q 189.15 82.08 195.07 81.79
  A 0.60 0.59 87.6 0 1 195.69 82.37
  L 195.82 87.01
  Q 195.84 87.57 195.28 87.66
  Q 183.54 89.44 177.73 89.01
  Q 171.40 88.53 171.13 81.49
  Q 170.83 73.63 171.07 65.75
  C 171.18 61.96 172.81 58.47 176.93 57.75
  Q 184.08 56.49 191.18 57.85
  C 198.06 59.18 196.95 71.22 196.40 76.41
  Q 196.34 76.96 195.78 76.96
  L 180.08 76.88
  A 0.90 0.89 10.4 0 0 179.24 77.45
  Z
  M 188.6798 65.6158
  A 1.82 1.82 0.0 0 0 186.8472 63.8085
  L 180.6673 63.8517
  A 1.82 1.82 0.0 0 0 178.8601 65.6843
  L 178.8802 68.5642
  A 1.82 1.82 0.0 0 0 180.7128 70.3715
  L 186.8927 70.3283
  A 1.82 1.82 0.0 0 0 188.6999 68.4957
  L 188.6798 65.6158
  Z"
/>
<path fill="#f7b636" d="
  M 250.49 85.77
  C 240.52 91.71 230.54 89.59 233.36 75.74
  C 235.06 67.41 243.85 69.46 249.94 69.56
  A 0.96 0.95 -72.9 0 0 250.76 69.12
  C 251.97 67.24 250.96 64.24 248.53 63.92
  C 245.14 63.48 239.82 64.42 236.33 64.84
  A 0.71 0.71 0.0 0 1 235.54 64.13
  L 235.60 59.10
  A 0.77 0.77 0.0 0 1 236.28 58.35
  Q 246.00 57.20 253.25 57.56
  C 258.04 57.80 259.26 63.45 259.20 67.25
  Q 259.05 77.51 259.00 87.78
  Q 259.00 88.36 258.42 88.38
  L 253.24 88.49
  Q 252.67 88.50 252.43 88.00
  L 251.49 86.07
  A 0.71 0.71 0.0 0 0 250.49 85.77
  Z
  M 251.0557 77.9357
  A 2.35 2.35 0.0 0 0 248.5898 75.7076
  L 243.2167 75.9798
  A 2.35 2.35 0.0 0 0 240.9886 78.4457
  L 241.0443 79.5443
  A 2.35 2.35 0.0 0 0 243.5102 81.7724
  L 248.8833 81.5002
  A 2.35 2.35 0.0 0 0 251.1114 79.0343
  L 251.0557 77.9357
  Z"
/>
<path fill="#f7b636" d="
  M 335.77 68.79
  Q 336.43 65.87 333.95 63.99
  A 0.84 0.81 60.5 0 0 333.37 63.82
  L 320.79 64.71
  Q 320.08 64.76 320.09 64.05
  L 320.13 58.92
  Q 320.13 58.22 320.84 58.18
  Q 327.74 57.77 334.52 57.39
  Q 343.23 56.91 343.51 65.63
  Q 343.88 76.72 343.67 87.82
  A 0.61 0.61 0.0 0 1 343.06 88.42
  L 337.61 88.41
  A 0.92 0.92 0.0 0 1 336.83 87.95
  L 335.63 85.76
  A 0.62 0.62 0.0 0 0 334.69 85.59
  C 329.18 90.26 318.55 91.31 317.68 81.62
  C 316.36 66.74 325.37 70.25 335.07 69.41
  Q 335.64 69.35 335.77 68.79
  Z
  M 335.9339 77.7603
  A 2.41 2.41 0.0 0 0 333.3461 75.5423
  L 327.7228 75.9750
  A 2.41 2.41 0.0 0 0 325.5048 78.5628
  L 325.5861 79.6197
  A 2.41 2.41 0.0 0 0 328.1739 81.8377
  L 333.7972 81.4050
  A 2.41 2.41 0.0 0 0 336.0152 78.8172
  L 335.9339 77.7603
  Z"
/>
<path fill="#f7b636" d="
  M 366.21 68.81
  L 365.97 64.83
  A 1.07 1.07 0.0 0 0 364.83 63.82
  L 351.32 64.69
  A 0.62 0.62 0.0 0 1 350.65 64.06
  L 350.72 59.01
  Q 350.73 58.35 351.39 58.29
  Q 357.34 57.72 363.25 57.51
  C 366.57 57.39 370.21 57.03 372.39 59.83
  C 375.16 63.39 374.12 77.52 373.96 87.97
  Q 373.95 88.50 373.41 88.49
  L 368.05 88.32
  A 0.83 0.82 -4.3 0 1 367.26 87.65
  Q 366.96 86.00 365.62 86.04
  Q 364.96 86.06 363.67 86.86
  C 359.30 89.57 351.32 90.65 348.88 84.78
  Q 347.48 81.42 348.45 76.02
  C 350.03 67.18 359.20 69.77 365.53 69.56
  Q 366.25 69.53 366.21 68.81
  Z
  M 366.3128 77.7670
  A 2.37 2.37 0.0 0 0 363.7718 75.5813
  L 358.2673 75.9952
  A 2.37 2.37 0.0 0 0 356.0817 78.5362
  L 356.1672 79.6730
  A 2.37 2.37 0.0 0 0 358.7082 81.8587
  L 364.2127 81.4448
  A 2.37 2.37 0.0 0 0 366.3983 78.9038
  L 366.3128 77.7670
  Z"
/>
<path fill="#f7b636" d="
  M 220.13 86.63
  A 0.74 0.74 0.0 0 0 219.15 85.90
  C 213.27 87.82 202.11 89.29 201.96 79.75
  Q 201.87 73.27 202.03 66.80
  C 202.16 61.51 204.43 58.00 209.93 58.00
  Q 218.72 57.99 227.36 57.99
  A 0.62 0.62 0.0 0 1 227.98 58.61
  Q 227.95 73.13 227.97 87.73
  C 227.98 92.81 227.63 97.72 222.25 98.92
  C 218.12 99.84 208.98 98.76 203.72 97.83
  Q 203.23 97.74 203.23 97.24
  L 203.30 92.39
  A 0.78 0.77 1.4 0 1 204.11 91.63
  L 217.99 92.27
  A 1.90 1.90 0.0 0 0 219.98 90.45
  L 220.13 86.63
  Z
  M 220.1084 66.4633
  A 1.59 1.59 0.0 0 0 218.5101 64.8817
  L 211.4702 64.9185
  A 1.59 1.59 0.0 0 0 209.8885 66.5168
  L 209.9516 78.5567
  A 1.59 1.59 0.0 0 0 211.5499 80.1383
  L 218.5898 80.1015
  A 1.59 1.59 0.0 0 0 220.1715 78.5032
  L 220.1084 66.4633
  Z"
/>
<path fill="#f7b636" d="
  M 411.42 64.69
  L 411.08 60.34
  A 1.14 1.14 0.0 0 1 412.20 59.11
  L 421.59 59.03
  A 1.14 1.14 0.0 0 1 422.74 60.18
  L 422.46 87.46
  A 1.14 1.14 0.0 0 1 421.27 88.59
  L 415.84 88.35
  A 1.14 1.14 0.0 0 1 414.75 87.25
  L 413.98 67.24
  A 1.14 1.14 0.0 0 0 413.35 66.27
  L 412.05 65.62
  A 1.14 1.14 0.0 0 1 411.42 64.69
  Z"
/>
<path fill="#f7b636" d="
  M 448.75 61.45
  C 450.40 62.97 454.00 66.25 453.35 68.50
  Q 453.25 68.84 453.08 68.53
  Q 451.29 65.24 448.73 62.52
  Q 448.49 62.27 448.45 61.59
  Q 448.42 61.15 448.75 61.45
  Z"
/>
<path fill="#203e87" d="
  M 99.99 95.67
  L 118.54 96.37
  Q 118.77 96.12 118.82 96.77
  Q 118.83 97.00 118.72 97.22
  Q 114.47 105.37 109.74 113.51
  A 0.88 0.87 14.7 0 1 108.98 113.95
  L 90.01 113.95
  Q 89.18 113.95 89.60 113.23
  L 99.99 95.67
  Z"
/>
</svg>
