<?xml version="1.0" encoding="UTF-8" standalone="no"?>
<!DOCTYPE svg PUBLIC "-//W3C//DTD SVG 1.1//EN" "http://www.w3.org/Graphics/SVG/1.1/DTD/svg11.dtd">
<svg xmlns="http://www.w3.org/2000/svg" version="1.1" viewBox="0.00 0.00 435.00 148.00">
<g stroke-width="2.00" fill="none" stroke-linecap="butt">
<path stroke="#909fc3" vector-effect="non-scaling-stroke" d="
  M 35.76 49.69
  Q 35.52 50.10 35.75 50.50
  Q 52.03 79.00 68.09 107.55
  A 0.55 0.55 0.0 0 0 69.05 107.56
  L 77.04 93.94
  A 2.08 2.07 45.9 0 0 77.07 91.90
  L 54.63 50.86"
/>
<path stroke="#acc9e9" vector-effect="non-scaling-stroke" d="
  M 54.63 50.86
  L 65.17 33.08
  A 0.52 0.52 0.0 0 0 64.72 32.29
  L 45.78 32.28
  A 1.60 1.59 14.1 0 0 44.38 33.11
  L 35.73 49.08
  Q 35.64 49.24 35.67 49.43
  Q 35.71 49.62 35.76 49.69"
/>
<path stroke="#3d69ad" vector-effect="non-scaling-stroke" d="
  M 54.63 50.86
  L 35.76 49.69"
/>
<path stroke="#909fc3" vector-effect="non-scaling-stroke" d="
  M 107.18 90.26
  L 115.04 75.33
  A 2.88 2.86 44.1 0 0 114.99 72.59
  L 92.66 33.05
  A 1.65 1.64 -14.7 0 0 91.23 32.22
  L 74.96 32.25
  A 0.56 0.56 0.0 0 0 74.47 33.09
  L 106.26 90.27
  A 0.52 0.52 0.0 0 0 107.18 90.26"
/>
<path stroke="#fbdb9c" vector-effect="non-scaling-stroke" d="
  M 407.7346 38.8055
  A 0.77 0.77 0.0 0 0 406.9714 38.0288
  L 400.3916 37.9714
  A 0.77 0.77 0.0 0 0 399.6149 38.7347
  L 399.5654 44.4145
  A 0.77 0.77 0.0 0 0 400.3286 45.1912
  L 406.9084 45.2486
  A 0.77 0.77 0.0 0 0 407.6851 44.4853
  L 407.7346 38.8055"
/>
<path stroke="#909fc3" vector-effect="non-scaling-stroke" d="
  M 84.94 95.78
  L 74.44 113.45
  A 0.38 0.38 0.0 0 0 74.77 114.02
  L 94.12 114.02
  A 0.92 0.92 0.0 0 0 94.93 113.54
  L 103.96 97.06
  Q 104.06 96.88 103.96 96.71
  Q 103.72 96.28 103.73 96.58"
/>
<path stroke="#fbdb9c" vector-effect="non-scaling-stroke" d="
  M 103.73 96.58
  L 103.78 95.56
  Q 103.81 95.05 103.51 94.64
  Q 102.00 92.54 99.72 88.55
  Q 85.45 63.58 71.38 38.75
  A 0.51 0.51 0.0 0 0 70.50 38.75
  L 62.67 52.03
  A 2.96 2.96 0.0 0 0 62.62 54.96
  L 84.94 95.78"
/>
<path stroke="#8b7b60" vector-effect="non-scaling-stroke" d="
  M 103.73 96.58
  L 84.94 95.78"
/>
<path stroke="#fbdb9c" vector-effect="non-scaling-stroke" d="
  M 152.36 72.92
  A 0.89 0.89 0.0 0 0 151.47 72.03
  L 134.64 71.95
  A 0.89 0.89 0.0 0 1 133.75 71.07
  L 133.48 39.47
  A 0.89 0.89 0.0 0 0 132.57 38.59
  L 126.20 38.72
  A 0.89 0.89 0.0 0 0 125.33 39.61
  L 125.12 78.60
  A 0.89 0.89 0.0 0 0 126.02 79.49
  L 151.45 79.35
  A 0.89 0.89 0.0 0 0 152.33 78.46
  L 152.36 72.92"
/>
<path stroke="#fbdb9c" vector-effect="non-scaling-stroke" d="
  M 259.28 72.31
  A 1.80 1.79 -84.3 0 1 257.84 70.55
  L 257.76 39.34
  Q 257.75 38.67 257.09 38.67
  L 250.47 38.65
  Q 249.90 38.65 249.89 39.22
  Q 249.40 64.71 249.79 71.42
  Q 250.45 82.67 262.26 79.06
  Q 262.69 78.92 262.69 78.47
  L 262.72 73.55
  A 0.66 0.66 0.0 0 0 262.19 72.89
  L 259.28 72.31"
/>
<path stroke="#fbdb9c" vector-effect="non-scaling-stroke" d="
  M 292.48 66.45
  C 297.83 63.43 297.97 59.30 298.09 53.20
  C 298.19 48.15 298.07 41.13 292.51 39.28
  Q 291.02 38.79 284.91 38.62
  Q 276.35 38.38 267.65 38.82
  Q 267.20 38.84 267.20 39.29
  L 267.26 78.78
  Q 267.26 79.37 267.85 79.36
  L 274.71 79.27
  A 0.60 0.60 0.0 0 0 275.30 78.67
  L 275.28 67.48
  A 0.73 0.73 0.0 0 1 276.02 66.75
  L 282.97 66.80
  Q 283.59 66.81 283.85 67.37
  L 289.18 78.88
  A 0.67 0.67 0.0 0 0 289.79 79.27
  L 297.51 79.34
  Q 298.24 79.35 297.92 78.69
  L 292.24 67.22
  A 0.58 0.58 0.0 0 1 292.48 66.45"
/>
<path stroke="#fbdb9c" vector-effect="non-scaling-stroke" d="
  M 373.28 48.25
  L 373.06 39.22
  A 0.68 0.67 89.1 0 0 372.39 38.56
  L 365.33 38.54
  A 0.63 0.63 0.0 0 0 364.70 39.17
  L 364.89 78.77
  A 0.62 0.62 0.0 0 0 365.52 79.38
  L 372.46 79.27
  Q 372.93 79.26 372.93 78.79
  L 373.15 57.05
  A 1.42 1.41 87.8 0 1 374.44 55.65
  L 381.12 55.09
  A 2.44 2.43 87.5 0 1 383.75 57.51
  L 383.77 78.84
  A 0.57 0.57 0.0 0 0 384.35 79.41
  L 391.06 79.28
  A 0.61 0.61 0.0 0 0 391.65 78.68
  Q 391.82 67.96 391.74 57.25
  C 391.66 46.02 381.68 47.64 374.28 49.05
  A 0.85 0.84 -6.2 0 1 373.28 48.25"
/>
<path stroke="#fbdb9c" vector-effect="non-scaling-stroke" d="
  M 160.88 79.37
  Q 168.85 80.77 180.25 78.55
  Q 180.70 78.46 180.70 78.00
  L 180.68 73.01
  A 0.64 0.63 -2.9 0 0 179.98 72.38
  Q 173.37 73.05 166.76 73.27
  Q 164.03 73.36 163.76 69.57
  A 1.73 1.72 -2.0 0 1 165.49 67.73
  L 180.99 67.74
  A 0.57 0.55 -87.1 0 0 181.54 67.23
  Q 182.16 61.28 181.45 55.36
  C 180.40 46.52 170.21 47.60 163.75 48.23
  C 155.99 48.99 156.17 54.11 155.93 60.97
  C 155.72 67.10 154.76 78.30 160.88 79.37"
/>
<path stroke="#fbdb9c" vector-effect="non-scaling-stroke" d="
  M 321.15 76.82
  L 321.51 78.71
  A 0.73 0.72 85.1 0 0 322.21 79.30
  L 328.03 79.35
  Q 328.65 79.36 328.66 78.74
  Q 328.86 67.55 328.56 56.37
  Q 328.35 48.45 320.51 48.08
  Q 316.63 47.89 305.43 49.30
  Q 305.01 49.36 305.00 49.78
  L 304.95 55.01
  A 0.61 0.60 -2.1 0 0 305.61 55.62
  Q 311.20 55.13 316.84 54.99
  C 319.87 54.91 321.27 56.63 320.67 59.53
  A 0.70 0.69 3.3 0 1 320.04 60.09
  C 311.72 60.81 303.08 57.71 302.42 69.52
  Q 302.22 73.24 302.86 74.63
  C 306.93 83.46 314.09 79.61 320.48 76.48
  Q 321.03 76.21 321.15 76.82"
/>
<path stroke="#fbdb9c" vector-effect="non-scaling-stroke" d="
  M 236.88 76.91
  L 236.78 78.86
  A 0.57 0.57 0.0 0 0 237.36 79.46
  L 243.50 79.36
  A 0.57 0.56 -88.9 0 0 244.06 78.81
  Q 244.40 68.22 244.19 57.59
  C 244.00 47.95 239.04 47.97 230.63 48.41
  Q 225.87 48.67 221.07 49.20
  Q 220.54 49.26 220.54 49.79
  L 220.53 55.07
  Q 220.52 55.70 221.15 55.63
  Q 226.48 55.10 231.83 55.02
  C 235.68 54.96 236.68 55.83 235.91 59.83
  Q 235.81 60.34 235.28 60.35
  Q 231.67 60.39 228.04 60.43
  C 221.96 60.49 218.93 61.42 218.07 67.75
  Q 217.35 73.05 218.74 75.76
  C 222.14 82.40 231.16 80.03 235.60 76.27
  A 0.78 0.78 0.0 0 1 236.88 76.91"
/>
<path stroke="#fbdb9c" vector-effect="non-scaling-stroke" d="
  M 351.80 77.00
  L 352.08 78.73
  A 0.76 0.76 0.0 0 0 352.82 79.37
  L 358.51 79.38
  A 0.68 0.68 0.0 0 0 359.19 78.71
  Q 359.37 68.98 359.28 59.24
  C 359.22 52.06 357.84 47.72 349.75 48.23
  Q 339.84 48.85 336.34 49.15
  Q 335.77 49.20 335.77 49.76
  L 335.76 54.55
  A 0.88 0.87 88.8 0 0 336.67 55.43
  L 349.81 54.86
  A 0.98 0.98 0.0 0 1 350.82 55.69
  L 351.39 59.56
  Q 351.47 60.16 350.87 60.18
  C 343.68 60.46 334.46 58.25 333.15 67.23
  C 331.22 80.38 341.40 83.25 350.66 76.54
  A 0.73 0.72 -22.8 0 1 351.80 77.00"
/>
<path stroke="#fbdb9c" vector-effect="non-scaling-stroke" d="
  M 205.01 77.97
  Q 205.49 80.39 204.15 82.37
  A 1.17 1.17 0.0 0 1 203.27 82.87
  Q 196.28 83.35 189.37 82.25
  Q 188.46 82.10 188.43 83.02
  L 188.23 88.26
  A 0.53 0.52 5.5 0 0 188.68 88.80
  C 193.58 89.51 205.65 91.37 209.81 88.65
  Q 212.99 86.56 213.12 81.98
  Q 213.34 74.09 212.94 49.33
  Q 212.93 48.83 212.43 48.82
  Q 203.84 48.62 195.25 48.76
  Q 187.74 48.89 187.01 55.99
  Q 186.36 62.37 187.27 71.63
  C 188.11 80.11 197.99 78.43 203.54 77.03
  A 1.21 1.20 77.2 0 1 205.01 77.97"
/>
<path stroke="#fbdb9c" vector-effect="non-scaling-stroke" d="
  M 398.93 57.18
  A 0.75 0.75 0.0 0 1 399.61 57.92
  L 399.77 78.70
  A 0.75 0.75 0.0 0 0 400.55 79.44
  L 406.91 79.21
  A 0.75 0.75 0.0 0 0 407.63 78.46
  L 407.71 50.77
  A 0.75 0.75 0.0 0 0 406.96 50.02
  L 396.47 49.98
  A 0.75 0.75 0.0 0 0 395.72 50.75
  L 395.83 56.22
  A 0.75 0.75 0.0 0 0 396.51 56.95
  L 398.93 57.18"
/>
<path stroke="#acc9e9" vector-effect="non-scaling-stroke" d="
  M 64.56 114.06
  A 0.51 0.51 0.0 0 0 65.00 113.30
  L 33.25 56.11
  A 0.51 0.51 0.0 0 0 32.35 56.12
  L 23.87 72.17
  A 0.51 0.51 0.0 0 0 23.88 72.66
  L 47.09 113.83
  A 0.51 0.51 0.0 0 0 47.54 114.09
  L 64.56 114.06"
/>
<path stroke="#909fc3" vector-effect="non-scaling-stroke" d="
  M 213.43 101.98
  L 212.26 101.73
  A 0.67 0.66 -85.4 0 1 211.75 101.12
  Q 211.72 100.36 210.96 99.99
  A 1.22 0.93 76.1 0 0 210.12 101.93
  C 211.93 104.08 216.36 104.74 216.61 101.19
  A 2.38 2.37 -79.8 0 0 214.92 98.75
  L 212.13 97.93
  A 0.50 0.50 0.0 0 1 211.92 97.09
  L 212.67 96.37
  Q 213.18 95.88 213.71 96.35
  L 215.25 97.72
  A 1.13 0.78 78.9 0 0 216.02 95.94
  Q 213.58 93.29 210.74 95.66
  A 2.05 2.05 0.0 0 0 211.32 99.15
  L 213.97 100.17
  A 0.95 0.95 0.0 0 1 213.43 101.98"
/>
<path stroke="#909fc3" vector-effect="non-scaling-stroke" d="
  M 151.91 98.36
  Q 150.95 97.22 150.82 95.75
  Q 150.76 95.16 150.19 95.03
  L 149.08 94.78
  A 0.45 0.45 0.0 0 0 148.60 95.46
  Q 150.92 99.06 151.54 103.25
  A 0.63 0.63 0.0 0 0 152.79 103.24
  Q 153.36 99.14 155.67 95.68
  A 0.57 0.57 0.0 0 0 155.18 94.80
  L 154.58 94.81
  A 0.89 0.89 0.0 0 0 153.78 95.38
  L 152.71 98.22
  Q 152.43 98.98 151.91 98.36"
/>
<path stroke="#909fc3" vector-effect="non-scaling-stroke" d="
  M 162.9888 97.6588
  A 2.91 2.91 0.0 0 0 160.1146 94.7135
  L 159.5946 94.7072
  A 2.91 2.91 0.0 0 0 156.6493 97.5814
  L 156.6112 100.7012
  A 2.91 2.91 0.0 0 0 159.4854 103.6465
  L 160.0054 103.6528
  A 2.91 2.91 0.0 0 0 162.9507 100.7786
  L 162.9888 97.6588"
/>
<path stroke="#909fc3" vector-effect="non-scaling-stroke" d="
  M 168.25 101.90
  C 166.99 102.32 166.10 101.72 166.05 100.39
  Q 165.97 97.94 166.01 95.48
  Q 166.03 94.84 165.38 94.81
  L 164.85 94.78
  Q 164.26 94.75 164.25 95.34
  Q 164.20 97.93 164.29 100.50
  C 164.39 103.10 166.93 104.69 169.14 103.34
  C 171.10 102.14 170.86 97.71 170.66 95.79
  Q 170.60 95.27 170.34 95.04
  Q 170.02 94.76 169.59 94.81
  A 0.66 0.65 -2.9 0 0 169.00 95.46
  L 168.93 100.96
  A 1.01 1.01 0.0 0 1 168.25 101.90"
/>
<path stroke="#909fc3" vector-effect="non-scaling-stroke" d="
  M 176.35 101.18
  Q 175.95 102.67 176.95 103.63
  A 0.55 0.55 0.0 0 0 177.87 103.34
  Q 178.23 101.54 177.72 99.80
  Q 177.59 99.34 177.77 98.91
  Q 178.42 97.37 177.86 95.80
  Q 177.59 95.07 176.82 95.02
  L 172.83 94.73
  Q 172.08 94.68 172.07 95.43
  L 172.04 102.92
  A 0.92 0.92 0.0 0 0 173.87 102.99
  L 174.03 100.64
  Q 174.07 100.07 174.63 100.17
  L 175.87 100.40
  A 0.63 0.62 -76.7 0 1 176.35 101.18"
/>
<path stroke="#909fc3" vector-effect="non-scaling-stroke" d="
  M 189.50 100.41
  C 190.59 100.04 192.07 100.22 192.88 99.40
  C 193.73 98.55 193.79 96.91 192.89 96.02
  Q 190.88 94.03 187.85 95.02
  Q 187.32 95.19 187.32 95.74
  L 187.29 102.76
  A 0.93 0.92 -36.4 0 0 189.10 103.03
  Q 189.31 102.34 189.05 101.21
  A 0.69 0.68 -16.0 0 1 189.50 100.41"
/>
<path stroke="#909fc3" vector-effect="non-scaling-stroke" d="
  M 196.79 97.78
  L 196.95 96.88
  A 0.63 0.63 0.0 0 1 197.56 96.36
  L 200.25 96.33
  A 0.81 0.67 -39.3 0 0 200.53 94.87
  Q 198.14 94.79 195.83 94.88
  A 0.60 0.59 -1.0 0 0 195.25 95.47
  L 195.25 103.02
  A 0.52 0.52 0.0 0 0 195.77 103.54
  L 200.40 103.47
  A 0.73 0.73 0.0 0 0 200.41 102.01
  Q 199.06 101.98 197.39 102.02
  A 0.59 0.58 88.6 0 1 196.79 101.44
  L 196.77 100.62
  Q 196.76 100.01 197.38 100.00
  L 200.25 99.95
  A 0.49 0.48 -85.6 0 0 200.71 99.55
  Q 200.74 99.38 200.79 99.21
  A 0.62 0.62 0.0 0 0 200.20 98.44
  L 197.29 98.40
  Q 196.68 98.39 196.79 97.78"
/>
<path stroke="#909fc3" vector-effect="non-scaling-stroke" d="
  M 204.91 100.17
  Q 207.57 99.82 206.97 102.58
  Q 206.85 103.12 207.31 103.41
  L 207.90 103.78
  Q 208.80 104.36 208.70 103.29
  L 208.32 99.24
  Q 208.27 98.74 208.46 98.26
  Q 208.62 97.85 208.78 97.43
  A 1.90 1.89 -79.5 0 0 207.02 94.86
  L 203.32 94.86
  Q 202.74 94.86 202.74 95.43
  L 202.75 102.85
  Q 202.75 103.46 203.35 103.56
  L 203.86 103.64
  A 0.52 0.51 3.7 0 0 204.46 103.12
  L 204.38 100.80
  A 0.62 0.61 -5.2 0 1 204.91 100.17"
/>
<path stroke="#909fc3" vector-effect="non-scaling-stroke" d="
  M 224.0820 97.6533
  A 2.96 2.96 0.0 0 0 221.1065 94.7089
  L 220.6465 94.7113
  A 2.96 2.96 0.0 0 0 217.7021 97.6867
  L 217.7180 100.7267
  A 2.96 2.96 0.0 0 0 220.6935 103.6711
  L 221.1535 103.6687
  A 2.96 2.96 0.0 0 0 224.0979 100.6933
  L 224.0820 97.6533"
/>
<path stroke="#909fc3" vector-effect="non-scaling-stroke" d="
  M 227.70 97.49
  C 227.86 98.92 227.73 101.89 228.43 102.91
  Q 229.24 104.09 231.19 103.31
  Q 231.58 103.16 231.58 102.74
  L 231.67 95.62
  Q 231.68 95.06 231.13 94.92
  L 230.58 94.78
  Q 230.08 94.66 230.06 95.17
  L 229.70 102.04
  Q 229.70 102.14 229.60 102.15
  L 229.33 102.17
  Q 229.32 102.18 229.31 102.16
  L 228.86 95.50
  Q 228.82 94.94 228.25 94.92
  L 225.96 94.84
  Q 225.50 94.83 225.50 95.29
  L 225.51 103.05
  Q 225.51 103.59 226.05 103.61
  L 226.41 103.62
  Q 226.96 103.64 226.98 103.09
  L 227.17 97.51
  A 0.27 0.27 0.0 0 1 227.70 97.49"
/>
<path stroke="#909fc3" vector-effect="non-scaling-stroke" d="
  M 237.52 102.00
  L 238.80 103.69
  A 0.49 0.49 0.0 0 0 239.66 103.29
  L 238.04 95.71
  A 2.01 2.01 0.0 0 0 234.08 95.91
  Q 233.69 99.45 232.75 102.63
  A 0.69 0.68 19.0 0 0 233.17 103.47
  L 233.68 103.66
  Q 234.40 103.93 234.44 103.17
  Q 234.56 100.89 236.92 101.59
  Q 237.29 101.70 237.52 102.00"
/>
<path stroke="#909fc3" vector-effect="non-scaling-stroke" d="
  M 242.61 100.38
  Q 242.61 98.40 242.69 95.95
  Q 242.71 95.40 242.45 95.12
  Q 242.08 94.71 241.51 94.84
  A 0.68 0.68 0.0 0 0 240.98 95.50
  L 240.99 102.75
  A 0.76 0.76 0.0 0 0 241.75 103.51
  L 246.51 103.48
  A 0.62 0.62 0.0 0 0 246.60 102.24
  L 243.90 101.86
  A 1.51 1.50 -86.2 0 1 242.61 100.38"
/>
<path stroke="#909fc3" vector-effect="non-scaling-stroke" d="
  M 250.61 97.21
  L 250.61 101.56
  A 0.32 0.32 0.0 0 1 250.37 101.87
  L 248.45 102.31
  A 0.59 0.59 0.0 0 0 248.58 103.47
  L 254.22 103.48
  A 0.46 0.46 0.0 0 0 254.60 102.75
  Q 253.94 101.84 252.79 101.99
  A 0.47 0.47 0.0 0 1 252.25 101.52
  L 252.26 97.31
  Q 252.26 96.62 252.94 96.50
  L 253.78 96.34
  A 0.76 0.76 0.0 0 0 253.64 94.84
  L 248.90 94.84
  Q 248.34 94.84 248.35 95.41
  L 248.36 95.70
  Q 248.38 96.39 249.07 96.44
  L 249.96 96.51
  Q 250.61 96.55 250.61 97.21"
/>
<path stroke="#909fc3" vector-effect="non-scaling-stroke" d="
  M 260.28 97.05
  C 258.74 98.53 255.07 100.14 256.03 103.04
  Q 256.18 103.51 256.67 103.50
  L 261.90 103.49
  Q 262.56 103.48 262.38 102.85
  L 262.27 102.45
  Q 262.14 102.00 261.67 102.00
  L 258.02 102.00
  Q 257.00 102.00 257.78 101.33
  L 261.74 97.95
  A 1.77 1.76 -62.6 0 0 260.76 94.85
  Q 259.11 94.70 256.49 94.84
  Q 255.38 94.90 256.01 96.06
  Q 256.24 96.48 256.73 96.47
  L 260.00 96.37
  A 0.40 0.39 -67.8 0 1 260.28 97.05"
/>
<path stroke="#909fc3" vector-effect="non-scaling-stroke" d="
  M 266.64 100.01
  L 268.70 99.95
  A 0.62 0.62 0.0 0 0 269.26 99.56
  L 269.42 99.12
  Q 269.70 98.42 268.94 98.41
  L 266.27 98.39
  A 0.98 0.98 0.0 0 1 266.23 96.44
  L 269.01 96.30
  A 0.74 0.73 -46.2 0 0 268.98 94.83
  L 264.55 94.81
  Q 263.89 94.80 263.89 95.46
  L 263.85 102.93
  Q 263.84 103.51 264.43 103.51
  L 269.26 103.50
  Q 269.75 103.50 269.76 103.00
  Q 269.76 102.81 269.75 102.61
  Q 269.72 102.04 269.14 102.03
  L 266.65 102.00
  A 1.00 0.99 -45.3 0 1 266.64 100.01"
/>
<path stroke="#909fc3" vector-effect="non-scaling-stroke" d="
  M 271.47 102.11
  L 271.20 102.40
  Q 270.74 102.88 271.35 103.12
  Q 274.80 104.49 276.69 102.55
  C 278.00 101.20 277.52 98.48 277.47 96.64
  A 1.16 1.15 13.9 0 0 276.88 95.67
  Q 274.43 94.31 271.59 94.94
  Q 270.95 95.07 271.23 95.66
  Q 272.52 98.33 271.88 101.35
  Q 271.78 101.78 271.47 102.11"
/>
<path stroke="#909fc3" vector-effect="non-scaling-stroke" d="
  M 288.51 101.27
  L 288.52 95.50
  Q 288.52 94.98 288.00 94.90
  L 287.55 94.84
  Q 286.86 94.75 286.85 95.45
  L 286.80 103.04
  Q 286.80 103.52 287.28 103.52
  L 292.02 103.49
  A 0.71 0.71 0.0 0 0 292.09 102.08
  Q 290.70 101.94 289.29 102.01
  Q 288.50 102.05 288.51 101.27"
/>
<path stroke="#909fc3" vector-effect="non-scaling-stroke" d="
  M 296.48 98.29
  A 0.95 0.95 0.0 0 1 296.76 96.44
  L 299.40 96.44
  Q 299.99 96.44 299.99 95.85
  L 300.00 95.27
  Q 300.00 94.79 299.52 94.79
  L 294.93 94.86
  A 0.46 0.45 89.4 0 0 294.49 95.32
  L 294.51 103.01
  Q 294.51 103.51 295.01 103.51
  L 299.79 103.50
  Q 300.34 103.50 300.25 102.96
  L 300.19 102.55
  A 0.66 0.65 85.3 0 0 299.55 102.00
  L 296.65 102.00
  A 0.61 0.61 0.0 0 1 296.05 101.39
  L 296.04 100.61
  A 0.60 0.60 0.0 0 1 296.64 100.01
  L 299.38 99.98
  A 0.62 0.61 -89.5 0 0 299.99 99.37
  L 299.99 98.78
  A 0.56 0.56 0.0 0 0 299.30 98.23
  Q 297.63 98.64 296.48 98.29"
/>
<path stroke="#909fc3" vector-effect="non-scaling-stroke" d="
  M 305.70 101.91
  C 305.12 102.28 304.39 102.25 303.91 101.69
  C 302.72 100.32 302.96 96.72 305.10 96.23
  A 0.70 0.69 80.3 0 1 305.94 96.83
  Q 306.06 97.91 307.20 98.04
  A 0.88 0.88 0.0 0 0 308.08 96.75
  Q 306.55 93.90 303.30 94.96
  A 1.23 1.21 -83.2 0 0 302.61 95.51
  Q 301.00 98.20 301.79 101.27
  C 302.38 103.54 304.15 104.55 306.22 103.12
  Q 306.66 102.82 307.04 103.19
  L 307.40 103.55
  Q 307.99 104.12 308.02 103.30
  L 308.16 99.64
  Q 308.18 99.09 307.63 99.10
  L 304.49 99.16
  A 0.65 0.64 53.8 0 0 304.30 100.42
  L 305.58 100.86
  A 0.59 0.59 0.0 0 1 305.70 101.91"
/>
<path stroke="#909fc3" vector-effect="non-scaling-stroke" d="
  M 311.85 101.54
  Q 313.82 101.12 314.40 102.86
  A 1.02 0.74 -80.8 0 0 314.50 103.06
  Q 314.88 103.72 315.49 103.71
  Q 316.18 103.71 316.03 103.03
  L 314.35 95.75
  A 1.81 1.81 0.0 0 0 310.82 95.72
  L 309.03 103.02
  A 0.78 0.78 0.0 0 0 310.49 103.55
  L 311.24 102.02
  Q 311.43 101.63 311.85 101.54"
/>
<path stroke="#909fc3" vector-effect="non-scaling-stroke" d="
  M 319.02 101.51
  Q 318.93 98.50 319.02 95.49
  Q 319.06 94.49 317.81 94.88
  Q 317.32 95.03 317.32 95.54
  L 317.42 102.95
  Q 317.43 103.48 317.95 103.49
  L 322.48 103.53
  A 0.52 0.51 -88.9 0 0 323.00 103.02
  L 323.02 102.52
  Q 323.04 102.00 322.52 102.00
  L 319.52 102.00
  Q 319.03 102.00 319.02 101.51"
/>
<path stroke="#909fc3" vector-effect="non-scaling-stroke" d="
  M 334.92 100.21
  C 337.62 100.67 339.80 98.02 338.29 96.01
  C 337.13 94.46 334.68 94.72 332.90 94.85
  Q 332.49 94.88 332.49 95.29
  L 332.50 103.01
  Q 332.50 103.53 333.01 103.53
  L 333.62 103.54
  Q 334.29 103.55 334.28 102.88
  L 334.27 100.76
  A 0.56 0.56 0.0 0 1 334.92 100.21"
/>
<path stroke="#909fc3" vector-effect="non-scaling-stroke" d="
  M 344.78 102.55
  Q 345.04 103.74 346.20 103.71
  A 0.53 0.53 0.0 0 0 346.70 103.01
  Q 345.57 99.62 345.12 95.96
  A 2.05 2.05 0.0 0 0 341.06 95.91
  Q 340.55 99.47 339.52 102.74
  Q 339.34 103.30 339.86 103.58
  Q 340.25 103.80 340.65 103.59
  Q 340.95 103.44 341.26 102.78
  Q 342.08 100.99 344.16 101.83
  Q 344.66 102.03 344.78 102.55"
/>
<path stroke="#909fc3" vector-effect="non-scaling-stroke" d="
  M 350.28 100.23
  L 351.39 100.29
  Q 351.96 100.32 351.98 100.89
  L 352.04 103.03
  A 0.86 0.85 48.6 0 0 353.74 103.14
  Q 354.01 101.37 353.38 99.77
  Q 353.22 99.38 353.41 99.01
  C 355.59 94.64 351.05 94.68 348.42 94.91
  A 0.63 0.63 0.0 0 0 347.84 95.54
  L 347.86 102.96
  Q 347.86 103.56 348.46 103.60
  L 348.93 103.63
  A 0.56 0.55 -88.1 0 0 349.52 103.07
  L 349.51 100.97
  Q 349.50 100.18 350.28 100.23"
/>
<path stroke="#909fc3" vector-effect="non-scaling-stroke" d="
  M 357.50 96.90
  L 357.51 102.85
  Q 357.51 103.45 358.09 103.57
  L 358.58 103.67
  A 0.56 0.56 0.0 0 0 359.25 103.12
  L 359.26 97.03
  A 0.61 0.60 3.4 0 1 359.94 96.43
  Q 360.93 96.55 361.49 95.89
  A 0.60 0.60 0.0 0 0 361.03 94.90
  L 355.76 94.85
  A 0.58 0.58 0.0 0 0 355.18 95.49
  L 355.23 95.90
  A 0.61 0.60 -5.7 0 0 355.90 96.44
  L 356.90 96.35
  Q 357.50 96.29 357.50 96.90"
/>
<path stroke="#909fc3" vector-effect="non-scaling-stroke" d="
  M 364.77 97.24
  Q 365.57 100.08 365.90 103.01
  A 0.61 0.59 86.8 0 0 366.49 103.55
  L 368.49 103.54
  Q 369.01 103.53 369.02 103.02
  Q 369.08 99.26 369.07 95.49
  Q 369.06 94.49 367.77 94.91
  Q 367.34 95.05 367.35 95.50
  L 367.52 101.24
  A 0.18 0.17 39.5 0 1 367.17 101.27
  L 366.12 95.49
  Q 366.02 94.95 365.47 94.92
  L 363.60 94.83
  Q 363.00 94.80 363.00 95.40
  L 362.98 102.98
  Q 362.98 103.71 363.71 103.65
  L 364.29 103.60
  Q 364.84 103.55 364.76 103.01
  Q 364.37 100.14 364.57 97.26
  Q 364.61 96.66 364.77 97.24"
/>
<path stroke="#909fc3" vector-effect="non-scaling-stroke" d="
  M 372.46 97.66
  L 372.47 97.22
  A 0.85 0.84 89.7 0 1 373.28 96.39
  L 375.98 96.29
  A 0.69 0.69 0.0 0 0 376.02 94.92
  Q 373.79 94.70 371.51 94.87
  Q 370.93 94.91 370.93 95.49
  L 370.93 102.98
  A 0.55 0.54 -0.0 0 0 371.48 103.52
  L 376.17 103.47
  A 0.68 0.68 0.0 0 0 376.20 102.11
  L 373.06 101.95
  A 0.66 0.65 -1.0 0 1 372.44 101.36
  L 372.38 100.74
  A 0.67 0.67 0.0 0 1 373.03 100.01
  L 375.73 99.93
  A 0.58 0.58 0.0 0 0 376.27 99.52
  L 376.45 98.90
  Q 376.58 98.46 376.12 98.45
  L 373.17 98.39
  Q 372.45 98.38 372.46 97.66"
/>
<path stroke="#909fc3" vector-effect="non-scaling-stroke" d="
  M 380.58 100.20
  L 381.90 100.27
  A 0.68 0.68 0.0 0 1 382.54 100.89
  L 382.75 103.16
  A 0.72 0.72 0.0 0 0 384.18 103.24
  Q 384.57 101.35 383.86 99.60
  Q 383.69 99.17 383.92 98.77
  C 386.03 95.07 381.60 94.56 378.86 94.97
  Q 378.37 95.04 378.37 95.54
  L 378.39 103.01
  A 0.76 0.76 0.0 0 0 379.91 103.05
  L 380.04 100.68
  A 0.51 0.51 0.0 0 1 380.58 100.20"
/>
<path stroke="#909fc3" vector-effect="non-scaling-stroke" d="
  M 143.9803 99.0102
  A 0.60 0.60 0.0 0 0 143.3814 98.4092
  L 132.8614 98.3908
  A 0.60 0.60 0.0 0 0 132.2603 98.9898
  L 132.2597 99.3498
  A 0.60 0.60 0.0 0 0 132.8586 99.9508
  L 143.3786 99.9692
  A 0.60 0.60 0.0 0 0 143.9797 99.3702
  L 143.9803 99.0102"
/>
<path stroke="#909fc3" vector-effect="non-scaling-stroke" d="
  M 400.6895 98.9198
  A 0.50 0.50 0.0 0 0 400.1887 98.4207
  L 389.5087 98.4393
  A 0.50 0.50 0.0 0 0 389.0096 98.9402
  L 389.0105 99.4602
  A 0.50 0.50 0.0 0 0 389.5113 99.9593
  L 400.1913 99.9407
  A 0.50 0.50 0.0 0 0 400.6904 99.4398
  L 400.6895 98.9198"
/>
<path stroke="#fbdb9c" vector-effect="non-scaling-stroke" d="
  M 275.28 47.12
  L 275.26 58.38
  A 1.14 1.14 0.0 0 0 276.40 59.52
  L 286.17 59.54
  A 3.82 3.73 -89.9 0 0 289.90 55.72
  L 289.92 49.82
  A 3.82 3.73 -89.9 0 0 286.19 46.00
  L 276.42 45.98
  A 1.14 1.14 0.0 0 0 275.28 47.12"
/>
<path stroke="#fbdb9c" vector-effect="non-scaling-stroke" d="
  M 165.09 61.35
  L 172.65 61.21
  A 1.20 1.20 0.0 0 0 173.83 59.99
  L 173.79 57.63
  A 3.22 3.16 89.0 0 0 170.57 54.47
  L 166.93 54.53
  A 3.22 3.16 89.0 0 0 163.83 57.81
  L 163.87 60.17
  A 1.20 1.20 0.0 0 0 165.09 61.35"
/>
<path stroke="#fbdb9c" vector-effect="non-scaling-stroke" d="
  M 313.06 66.96
  C 309.20 67.51 309.71 72.49 313.00 72.64
  Q 316.39 72.78 320.03 71.48
  Q 320.66 71.26 320.68 70.60
  L 320.78 67.65
  Q 320.80 67.03 320.18 66.95
  Q 316.54 66.47 313.06 66.96"
/>
<path stroke="#fbdb9c" vector-effect="non-scaling-stroke" d="
  M 236.1910 68.5123
  A 2.02 2.02 0.0 0 0 234.0416 66.6306
  L 227.8552 67.0415
  A 2.02 2.02 0.0 0 0 225.9735 69.1909
  L 226.0690 70.6277
  A 2.02 2.02 0.0 0 0 228.2184 72.5094
  L 234.4048 72.0985
  A 2.02 2.02 0.0 0 0 236.2865 69.9491
  L 236.1910 68.5123"
/>
<path stroke="#fbdb9c" vector-effect="non-scaling-stroke" d="
  M 341.12 68.79
  C 340.79 72.79 343.86 72.93 346.64 72.52
  C 349.95 72.02 352.49 71.45 350.89 67.19
  Q 350.75 66.81 350.34 66.82
  L 343.18 66.87
  A 2.08 2.08 0.0 0 0 341.12 68.79"
/>
<path stroke="#fbdb9c" vector-effect="non-scaling-stroke" d="
  M 203.48 55.86
  L 196.46 55.88
  A 1.59 1.59 0.0 0 0 194.88 57.48
  L 194.92 68.64
  A 2.62 2.41 -0.2 0 0 197.55 71.04
  L 202.51 71.02
  A 2.62 2.41 -0.2 0 0 205.12 68.60
  L 205.08 57.44
  A 1.59 1.59 0.0 0 0 203.48 55.86"
/>
<path stroke="#909fc3" vector-effect="non-scaling-stroke" d="
  M 161.2989 97.6688
  A 1.43 1.43 0.0 0 0 159.8491 96.2589
  L 159.6491 96.2617
  A 1.43 1.43 0.0 0 0 158.2392 97.7115
  L 158.2811 100.7112
  A 1.43 1.43 0.0 0 0 159.7309 102.1211
  L 159.9309 102.1183
  A 1.43 1.43 0.0 0 0 161.3408 100.6685
  L 161.2989 97.6688"
/>
<path stroke="#909fc3" vector-effect="non-scaling-stroke" d="
  M 173.93 96.81
  L 173.93 98.19
  A 0.44 0.44 0.0 0 0 174.36 98.64
  L 174.99 98.64
  A 1.51 1.04 0.3 0 0 176.51 97.61
  L 176.51 97.43
  A 1.51 1.04 0.3 0 0 175.01 96.38
  L 174.38 96.38
  A 0.44 0.44 0.0 0 0 173.93 96.81"
/>
<path stroke="#909fc3" vector-effect="non-scaling-stroke" d="
  M 191.9005 97.7055
  A 1.44 1.19 6.6 0 0 190.6068 96.3579
  A 1.44 1.19 6.6 0 0 189.0395 97.3745
  A 1.44 1.19 6.6 0 0 190.3332 98.7221
  A 1.44 1.19 6.6 0 0 191.9005 97.7055"
/>
<path stroke="#909fc3" vector-effect="non-scaling-stroke" d="
  M 207.1588 97.5782
  A 1.45 1.21 2.3 0 0 205.7586 96.3110
  A 1.45 1.21 2.3 0 0 204.2612 97.4618
  A 1.45 1.21 2.3 0 0 205.6614 98.7290
  A 1.45 1.21 2.3 0 0 207.1588 97.5782"
/>
<path stroke="#909fc3" vector-effect="non-scaling-stroke" d="
  M 222.4174 97.5994
  A 1.39 1.39 0.0 0 0 220.9727 96.2663
  L 220.6729 96.2784
  A 1.39 1.39 0.0 0 0 219.3398 97.7230
  L 219.4626 100.7806
  A 1.39 1.39 0.0 0 0 220.9073 102.1137
  L 221.2071 102.1016
  A 1.39 1.39 0.0 0 0 222.5402 100.6570
  L 222.4174 97.5994"
/>
<path stroke="#909fc3" vector-effect="non-scaling-stroke" d="
  M 234.99 99.50
  A 0.42 0.42 0.0 0 0 235.34 100.06
  L 236.78 100.19
  A 0.42 0.42 0.0 0 0 237.23 99.70
  L 236.77 96.82
  A 0.42 0.42 0.0 0 0 235.96 96.75
  L 234.99 99.50"
/>
<path stroke="#909fc3" vector-effect="non-scaling-stroke" d="
  M 273.62 96.72
  L 273.62 101.56
  A 0.41 0.41 0.0 0 0 274.03 101.97
  L 274.18 101.97
  A 2.15 1.70 90.0 0 0 275.88 99.82
  L 275.88 98.46
  A 2.15 1.70 -90.0 0 0 274.18 96.31
  L 274.03 96.31
  A 0.41 0.41 0.0 0 0 273.62 96.72"
/>
<path stroke="#909fc3" vector-effect="non-scaling-stroke" d="
  M 313.24 98.25
  L 312.92 96.54
  A 0.38 0.38 0.0 0 0 312.18 96.54
  L 311.62 99.51
  A 0.99 0.88 -36.1 0 0 313.49 99.69
  Q 313.55 99.47 313.46 99.19
  A 7.80 1.89 -89.6 0 1 313.24 98.25"
/>
<path stroke="#909fc3" vector-effect="non-scaling-stroke" d="
  M 336.8987 97.3069
  A 1.40 1.19 -10.0 0 0 335.3134 96.3781
  A 1.40 1.19 -10.0 0 0 334.1413 97.7931
  A 1.40 1.19 -10.0 0 0 335.7266 98.7219
  A 1.40 1.19 -10.0 0 0 336.8987 97.3069"
/>
<path stroke="#909fc3" vector-effect="non-scaling-stroke" d="
  M 343.64 96.58
  A 0.38 0.38 0.0 0 0 342.89 96.55
  L 342.15 99.44
  Q 341.97 100.15 342.70 100.10
  L 343.58 100.04
  Q 344.16 100.00 344.07 99.42
  L 343.64 96.58"
/>
<path stroke="#909fc3" vector-effect="non-scaling-stroke" d="
  M 352.1639 97.3076
  A 0.87 0.87 0.0 0 0 351.3454 96.3890
  L 350.4070 96.3349
  A 0.87 0.87 0.0 0 0 349.4883 97.1533
  L 349.4561 97.7124
  A 0.87 0.87 0.0 0 0 350.2746 98.6310
  L 351.2130 98.6851
  A 0.87 0.87 0.0 0 0 352.1317 97.8667
  L 352.1639 97.3076"
/>
<path stroke="#909fc3" vector-effect="non-scaling-stroke" d="
  M 380.06 96.73
  L 380.04 98.27
  A 0.43 0.43 0.0 0 0 380.47 98.70
  L 380.76 98.70
  A 2.12 1.10 0.6 0 0 382.89 97.62
  L 382.89 97.42
  A 2.12 1.10 0.6 0 0 380.78 96.30
  L 380.49 96.30
  A 0.43 0.43 0.0 0 0 380.06 96.73"
/>
</g>
<path fill="#ffffff" d="
  M 0.00 0.00
  L 435.00 0.00
  L 435.00 148.00
  L 0.00 148.00
  L 0.00 0.00
  Z
  M 35.76 49.69
  Q 35.52 50.10 35.75 50.50
  Q 52.03 79.00 68.09 107.55
  A 0.55 0.55 0.0 0 0 69.05 107.56
  L 77.04 93.94
  A 2.08 2.07 45.9 0 0 77.07 91.90
  L 54.63 50.86
  L 65.17 33.08
  A 0.52 0.52 0.0 0 0 64.72 32.29
  L 45.78 32.28
  A 1.60 1.59 14.1 0 0 44.38 33.11
  L 35.73 49.08
  Q 35.64 49.24 35.67 49.43
  Q 35.71 49.62 35.76 49.69
  Z
  M 107.18 90.26
  L 115.04 75.33
  A 2.88 2.86 44.1 0 0 114.99 72.59
  L 92.66 33.05
  A 1.65 1.64 -14.7 0 0 91.23 32.22
  L 74.96 32.25
  A 0.56 0.56 0.0 0 0 74.47 33.09
  L 106.26 90.27
  A 0.52 0.52 0.0 0 0 107.18 90.26
  Z
  M 407.7346 38.8055
  A 0.77 0.77 0.0 0 0 406.9714 38.0288
  L 400.3916 37.9714
  A 0.77 0.77 0.0 0 0 399.6149 38.7347
  L 399.5654 44.4145
  A 0.77 0.77 0.0 0 0 400.3286 45.1912
  L 406.9084 45.2486
  A 0.77 0.77 0.0 0 0 407.6851 44.4853
  L 407.7346 38.8055
  Z
  M 84.94 95.78
  L 74.44 113.45
  A 0.38 0.38 0.0 0 0 74.77 114.02
  L 94.12 114.02
  A 0.92 0.92 0.0 0 0 94.93 113.54
  L 103.96 97.06
  Q 104.06 96.88 103.96 96.71
  Q 103.72 96.28 103.73 96.58
  L 103.78 95.56
  Q 103.81 95.05 103.51 94.64
  Q 102.00 92.54 99.72 88.55
  Q 85.45 63.58 71.38 38.75
  A 0.51 0.51 0.0 0 0 70.50 38.75
  L 62.67 52.03
  A 2.96 2.96 0.0 0 0 62.62 54.96
  L 84.94 95.78
  Z
  M 152.36 72.92
  A 0.89 0.89 0.0 0 0 151.47 72.03
  L 134.64 71.95
  A 0.89 0.89 0.0 0 1 133.75 71.07
  L 133.48 39.47
  A 0.89 0.89 0.0 0 0 132.57 38.59
  L 126.20 38.72
  A 0.89 0.89 0.0 0 0 125.33 39.61
  L 125.12 78.60
  A 0.89 0.89 0.0 0 0 126.02 79.49
  L 151.45 79.35
  A 0.89 0.89 0.0 0 0 152.33 78.46
  L 152.36 72.92
  Z
  M 259.28 72.31
  A 1.80 1.79 -84.3 0 1 257.84 70.55
  L 257.76 39.34
  Q 257.75 38.67 257.09 38.67
  L 250.47 38.65
  Q 249.90 38.65 249.89 39.22
  Q 249.40 64.71 249.79 71.42
  Q 250.45 82.67 262.26 79.06
  Q 262.69 78.92 262.69 78.47
  L 262.72 73.55
  A 0.66 0.66 0.0 0 0 262.19 72.89
  L 259.28 72.31
  Z
  M 292.48 66.45
  C 297.83 63.43 297.97 59.30 298.09 53.20
  C 298.19 48.15 298.07 41.13 292.51 39.28
  Q 291.02 38.79 284.91 38.62
  Q 276.35 38.38 267.65 38.82
  Q 267.20 38.84 267.20 39.29
  L 267.26 78.78
  Q 267.26 79.37 267.85 79.36
  L 274.71 79.27
  A 0.60 0.60 0.0 0 0 275.30 78.67
  L 275.28 67.48
  A 0.73 0.73 0.0 0 1 276.02 66.75
  L 282.97 66.80
  Q 283.59 66.81 283.85 67.37
  L 289.18 78.88
  A 0.67 0.67 0.0 0 0 289.79 79.27
  L 297.51 79.34
  Q 298.24 79.35 297.92 78.69
  L 292.24 67.22
  A 0.58 0.58 0.0 0 1 292.48 66.45
  Z
  M 373.28 48.25
  L 373.06 39.22
  A 0.68 0.67 89.1 0 0 372.39 38.56
  L 365.33 38.54
  A 0.63 0.63 0.0 0 0 364.70 39.17
  L 364.89 78.77
  A 0.62 0.62 0.0 0 0 365.52 79.38
  L 372.46 79.27
  Q 372.93 79.26 372.93 78.79
  L 373.15 57.05
  A 1.42 1.41 87.8 0 1 374.44 55.65
  L 381.12 55.09
  A 2.44 2.43 87.5 0 1 383.75 57.51
  L 383.77 78.84
  A 0.57 0.57 0.0 0 0 384.35 79.41
  L 391.06 79.28
  A 0.61 0.61 0.0 0 0 391.65 78.68
  Q 391.82 67.96 391.74 57.25
  C 391.66 46.02 381.68 47.64 374.28 49.05
  A 0.85 0.84 -6.2 0 1 373.28 48.25
  Z
  M 160.88 79.37
  Q 168.85 80.77 180.25 78.55
  Q 180.70 78.46 180.70 78.00
  L 180.68 73.01
  A 0.64 0.63 -2.9 0 0 179.98 72.38
  Q 173.37 73.05 166.76 73.27
  Q 164.03 73.36 163.76 69.57
  A 1.73 1.72 -2.0 0 1 165.49 67.73
  L 180.99 67.74
  A 0.57 0.55 -87.1 0 0 181.54 67.23
  Q 182.16 61.28 181.45 55.36
  C 180.40 46.52 170.21 47.60 163.75 48.23
  C 155.99 48.99 156.17 54.11 155.93 60.97
  C 155.72 67.10 154.76 78.30 160.88 79.37
  Z
  M 321.15 76.82
  L 321.51 78.71
  A 0.73 0.72 85.1 0 0 322.21 79.30
  L 328.03 79.35
  Q 328.65 79.36 328.66 78.74
  Q 328.86 67.55 328.56 56.37
  Q 328.35 48.45 320.51 48.08
  Q 316.63 47.89 305.43 49.30
  Q 305.01 49.36 305.00 49.78
  L 304.95 55.01
  A 0.61 0.60 -2.1 0 0 305.61 55.62
  Q 311.20 55.13 316.84 54.99
  C 319.87 54.91 321.27 56.63 320.67 59.53
  A 0.70 0.69 3.3 0 1 320.04 60.09
  C 311.72 60.81 303.08 57.71 302.42 69.52
  Q 302.22 73.24 302.86 74.63
  C 306.93 83.46 314.09 79.61 320.48 76.48
  Q 321.03 76.21 321.15 76.82
  Z
  M 236.88 76.91
  L 236.78 78.86
  A 0.57 0.57 0.0 0 0 237.36 79.46
  L 243.50 79.36
  A 0.57 0.56 -88.9 0 0 244.06 78.81
  Q 244.40 68.22 244.19 57.59
  C 244.00 47.95 239.04 47.97 230.63 48.41
  Q 225.87 48.67 221.07 49.20
  Q 220.54 49.26 220.54 49.79
  L 220.53 55.07
  Q 220.52 55.70 221.15 55.63
  Q 226.48 55.10 231.83 55.02
  C 235.68 54.96 236.68 55.83 235.91 59.83
  Q 235.81 60.34 235.28 60.35
  Q 231.67 60.39 228.04 60.43
  C 221.96 60.49 218.93 61.42 218.07 67.75
  Q 217.35 73.05 218.74 75.76
  C 222.14 82.40 231.16 80.03 235.60 76.27
  A 0.78 0.78 0.0 0 1 236.88 76.91
  Z
  M 351.80 77.00
  L 352.08 78.73
  A 0.76 0.76 0.0 0 0 352.82 79.37
  L 358.51 79.38
  A 0.68 0.68 0.0 0 0 359.19 78.71
  Q 359.37 68.98 359.28 59.24
  C 359.22 52.06 357.84 47.72 349.75 48.23
  Q 339.84 48.85 336.34 49.15
  Q 335.77 49.20 335.77 49.76
  L 335.76 54.55
  A 0.88 0.87 88.8 0 0 336.67 55.43
  L 349.81 54.86
  A 0.98 0.98 0.0 0 1 350.82 55.69
  L 351.39 59.56
  Q 351.47 60.16 350.87 60.18
  C 343.68 60.46 334.46 58.25 333.15 67.23
  C 331.22 80.38 341.40 83.25 350.66 76.54
  A 0.73 0.72 -22.8 0 1 351.80 77.00
  Z
  M 205.01 77.97
  Q 205.49 80.39 204.15 82.37
  A 1.17 1.17 0.0 0 1 203.27 82.87
  Q 196.28 83.35 189.37 82.25
  Q 188.46 82.10 188.43 83.02
  L 188.23 88.26
  A 0.53 0.52 5.5 0 0 188.68 88.80
  C 193.58 89.51 205.65 91.37 209.81 88.65
  Q 212.99 86.56 213.12 81.98
  Q 213.34 74.09 212.94 49.33
  Q 212.93 48.83 212.43 48.82
  Q 203.84 48.62 195.25 48.76
  Q 187.74 48.89 187.01 55.99
  Q 186.36 62.37 187.27 71.63
  C 188.11 80.11 197.99 78.43 203.54 77.03
  A 1.21 1.20 77.2 0 1 205.01 77.97
  Z
  M 398.93 57.18
  A 0.75 0.75 0.0 0 1 399.61 57.92
  L 399.77 78.70
  A 0.75 0.75 0.0 0 0 400.55 79.44
  L 406.91 79.21
  A 0.75 0.75 0.0 0 0 407.63 78.46
  L 407.71 50.77
  A 0.75 0.75 0.0 0 0 406.96 50.02
  L 396.47 49.98
  A 0.75 0.75 0.0 0 0 395.72 50.75
  L 395.83 56.22
  A 0.75 0.75 0.0 0 0 396.51 56.95
  L 398.93 57.18
  Z
  M 64.56 114.06
  A 0.51 0.51 0.0 0 0 65.00 113.30
  L 33.25 56.11
  A 0.51 0.51 0.0 0 0 32.35 56.12
  L 23.87 72.17
  A 0.51 0.51 0.0 0 0 23.88 72.66
  L 47.09 113.83
  A 0.51 0.51 0.0 0 0 47.54 114.09
  L 64.56 114.06
  Z
  M 213.43 101.98
  L 212.26 101.73
  A 0.67 0.66 -85.4 0 1 211.75 101.12
  Q 211.72 100.36 210.96 99.99
  A 1.22 0.93 76.1 0 0 210.12 101.93
  C 211.93 104.08 216.36 104.74 216.61 101.19
  A 2.38 2.37 -79.8 0 0 214.92 98.75
  L 212.13 97.93
  A 0.50 0.50 0.0 0 1 211.92 97.09
  L 212.67 96.37
  Q 213.18 95.88 213.71 96.35
  L 215.25 97.72
  A 1.13 0.78 78.9 0 0 216.02 95.94
  Q 213.58 93.29 210.74 95.66
  A 2.05 2.05 0.0 0 0 211.32 99.15
  L 213.97 100.17
  A 0.95 0.95 0.0 0 1 213.43 101.98
  Z
  M 151.91 98.36
  Q 150.95 97.22 150.82 95.75
  Q 150.76 95.16 150.19 95.03
  L 149.08 94.78
  A 0.45 0.45 0.0 0 0 148.60 95.46
  Q 150.92 99.06 151.54 103.25
  A 0.63 0.63 0.0 0 0 152.79 103.24
  Q 153.36 99.14 155.67 95.68
  A 0.57 0.57 0.0 0 0 155.18 94.80
  L 154.58 94.81
  A 0.89 0.89 0.0 0 0 153.78 95.38
  L 152.71 98.22
  Q 152.43 98.98 151.91 98.36
  Z
  M 162.9888 97.6588
  A 2.91 2.91 0.0 0 0 160.1146 94.7135
  L 159.5946 94.7072
  A 2.91 2.91 0.0 0 0 156.6493 97.5814
  L 156.6112 100.7012
  A 2.91 2.91 0.0 0 0 159.4854 103.6465
  L 160.0054 103.6528
  A 2.91 2.91 0.0 0 0 162.9507 100.7786
  L 162.9888 97.6588
  Z
  M 168.25 101.90
  C 166.99 102.32 166.10 101.72 166.05 100.39
  Q 165.97 97.94 166.01 95.48
  Q 166.03 94.84 165.38 94.81
  L 164.85 94.78
  Q 164.26 94.75 164.25 95.34
  Q 164.20 97.93 164.29 100.50
  C 164.39 103.10 166.93 104.69 169.14 103.34
  C 171.10 102.14 170.86 97.71 170.66 95.79
  Q 170.60 95.27 170.34 95.04
  Q 170.02 94.76 169.59 94.81
  A 0.66 0.65 -2.9 0 0 169.00 95.46
  L 168.93 100.96
  A 1.01 1.01 0.0 0 1 168.25 101.90
  Z
  M 176.35 101.18
  Q 175.95 102.67 176.95 103.63
  A 0.55 0.55 0.0 0 0 177.87 103.34
  Q 178.23 101.54 177.72 99.80
  Q 177.59 99.34 177.77 98.91
  Q 178.42 97.37 177.86 95.80
  Q 177.59 95.07 176.82 95.02
  L 172.83 94.73
  Q 172.08 94.68 172.07 95.43
  L 172.04 102.92
  A 0.92 0.92 0.0 0 0 173.87 102.99
  L 174.03 100.64
  Q 174.07 100.07 174.63 100.17
  L 175.87 100.40
  A 0.63 0.62 -76.7 0 1 176.35 101.18
  Z
  M 189.50 100.41
  C 190.59 100.04 192.07 100.22 192.88 99.40
  C 193.73 98.55 193.79 96.91 192.89 96.02
  Q 190.88 94.03 187.85 95.02
  Q 187.32 95.19 187.32 95.74
  L 187.29 102.76
  A 0.93 0.92 -36.4 0 0 189.10 103.03
  Q 189.31 102.34 189.05 101.21
  A 0.69 0.68 -16.0 0 1 189.50 100.41
  Z
  M 196.79 97.78
  L 196.95 96.88
  A 0.63 0.63 0.0 0 1 197.56 96.36
  L 200.25 96.33
  A 0.81 0.67 -39.3 0 0 200.53 94.87
  Q 198.14 94.79 195.83 94.88
  A 0.60 0.59 -1.0 0 0 195.25 95.47
  L 195.25 103.02
  A 0.52 0.52 0.0 0 0 195.77 103.54
  L 200.40 103.47
  A 0.73 0.73 0.0 0 0 200.41 102.01
  Q 199.06 101.98 197.39 102.02
  A 0.59 0.58 88.6 0 1 196.79 101.44
  L 196.77 100.62
  Q 196.76 100.01 197.38 100.00
  L 200.25 99.95
  A 0.49 0.48 -85.6 0 0 200.71 99.55
  Q 200.74 99.38 200.79 99.21
  A 0.62 0.62 0.0 0 0 200.20 98.44
  L 197.29 98.40
  Q 196.68 98.39 196.79 97.78
  Z
  M 204.91 100.17
  Q 207.57 99.82 206.97 102.58
  Q 206.85 103.12 207.31 103.41
  L 207.90 103.78
  Q 208.80 104.36 208.70 103.29
  L 208.32 99.24
  Q 208.27 98.74 208.46 98.26
  Q 208.62 97.85 208.78 97.43
  A 1.90 1.89 -79.5 0 0 207.02 94.86
  L 203.32 94.86
  Q 202.74 94.86 202.74 95.43
  L 202.75 102.85
  Q 202.75 103.46 203.35 103.56
  L 203.86 103.64
  A 0.52 0.51 3.7 0 0 204.46 103.12
  L 204.38 100.80
  A 0.62 0.61 -5.2 0 1 204.91 100.17
  Z
  M 224.0820 97.6533
  A 2.96 2.96 0.0 0 0 221.1065 94.7089
  L 220.6465 94.7113
  A 2.96 2.96 0.0 0 0 217.7021 97.6867
  L 217.7180 100.7267
  A 2.96 2.96 0.0 0 0 220.6935 103.6711
  L 221.1535 103.6687
  A 2.96 2.96 0.0 0 0 224.0979 100.6933
  L 224.0820 97.6533
  Z
  M 227.70 97.49
  C 227.86 98.92 227.73 101.89 228.43 102.91
  Q 229.24 104.09 231.19 103.31
  Q 231.58 103.16 231.58 102.74
  L 231.67 95.62
  Q 231.68 95.06 231.13 94.92
  L 230.58 94.78
  Q 230.08 94.66 230.06 95.17
  L 229.70 102.04
  Q 229.70 102.14 229.60 102.15
  L 229.33 102.17
  Q 229.32 102.18 229.31 102.16
  L 228.86 95.50
  Q 228.82 94.94 228.25 94.92
  L 225.96 94.84
  Q 225.50 94.83 225.50 95.29
  L 225.51 103.05
  Q 225.51 103.59 226.05 103.61
  L 226.41 103.62
  Q 226.96 103.64 226.98 103.09
  L 227.17 97.51
  A 0.27 0.27 0.0 0 1 227.70 97.49
  Z
  M 237.52 102.00
  L 238.80 103.69
  A 0.49 0.49 0.0 0 0 239.66 103.29
  L 238.04 95.71
  A 2.01 2.01 0.0 0 0 234.08 95.91
  Q 233.69 99.45 232.75 102.63
  A 0.69 0.68 19.0 0 0 233.17 103.47
  L 233.68 103.66
  Q 234.40 103.93 234.44 103.17
  Q 234.56 100.89 236.92 101.59
  Q 237.29 101.70 237.52 102.00
  Z
  M 242.61 100.38
  Q 242.61 98.40 242.69 95.95
  Q 242.71 95.40 242.45 95.12
  Q 242.08 94.71 241.51 94.84
  A 0.68 0.68 0.0 0 0 240.98 95.50
  L 240.99 102.75
  A 0.76 0.76 0.0 0 0 241.75 103.51
  L 246.51 103.48
  A 0.62 0.62 0.0 0 0 246.60 102.24
  L 243.90 101.86
  A 1.51 1.50 -86.2 0 1 242.61 100.38
  Z
  M 250.61 97.21
  L 250.61 101.56
  A 0.32 0.32 0.0 0 1 250.37 101.87
  L 248.45 102.31
  A 0.59 0.59 0.0 0 0 248.58 103.47
  L 254.22 103.48
  A 0.46 0.46 0.0 0 0 254.60 102.75
  Q 253.94 101.84 252.79 101.99
  A 0.47 0.47 0.0 0 1 252.25 101.52
  L 252.26 97.31
  Q 252.26 96.62 252.94 96.50
  L 253.78 96.34
  A 0.76 0.76 0.0 0 0 253.64 94.84
  L 248.90 94.84
  Q 248.34 94.84 248.35 95.41
  L 248.36 95.70
  Q 248.38 96.39 249.07 96.44
  L 249.96 96.51
  Q 250.61 96.55 250.61 97.21
  Z
  M 260.28 97.05
  C 258.74 98.53 255.07 100.14 256.03 103.04
  Q 256.18 103.51 256.67 103.50
  L 261.90 103.49
  Q 262.56 103.48 262.38 102.85
  L 262.27 102.45
  Q 262.14 102.00 261.67 102.00
  L 258.02 102.00
  Q 257.00 102.00 257.78 101.33
  L 261.74 97.95
  A 1.77 1.76 -62.6 0 0 260.76 94.85
  Q 259.11 94.70 256.49 94.84
  Q 255.38 94.90 256.01 96.06
  Q 256.24 96.48 256.73 96.47
  L 260.00 96.37
  A 0.40 0.39 -67.8 0 1 260.28 97.05
  Z
  M 266.64 100.01
  L 268.70 99.95
  A 0.62 0.62 0.0 0 0 269.26 99.56
  L 269.42 99.12
  Q 269.70 98.42 268.94 98.41
  L 266.27 98.39
  A 0.98 0.98 0.0 0 1 266.23 96.44
  L 269.01 96.30
  A 0.74 0.73 -46.2 0 0 268.98 94.83
  L 264.55 94.81
  Q 263.89 94.80 263.89 95.46
  L 263.85 102.93
  Q 263.84 103.51 264.43 103.51
  L 269.26 103.50
  Q 269.75 103.50 269.76 103.00
  Q 269.76 102.81 269.75 102.61
  Q 269.72 102.04 269.14 102.03
  L 266.65 102.00
  A 1.00 0.99 -45.3 0 1 266.64 100.01
  Z
  M 271.47 102.11
  L 271.20 102.40
  Q 270.74 102.88 271.35 103.12
  Q 274.80 104.49 276.69 102.55
  C 278.00 101.20 277.52 98.48 277.47 96.64
  A 1.16 1.15 13.9 0 0 276.88 95.67
  Q 274.43 94.31 271.59 94.94
  Q 270.95 95.07 271.23 95.66
  Q 272.52 98.33 271.88 101.35
  Q 271.78 101.78 271.47 102.11
  Z
  M 288.51 101.27
  L 288.52 95.50
  Q 288.52 94.98 288.00 94.90
  L 287.55 94.84
  Q 286.86 94.75 286.85 95.45
  L 286.80 103.04
  Q 286.80 103.52 287.28 103.52
  L 292.02 103.49
  A 0.71 0.71 0.0 0 0 292.09 102.08
  Q 290.70 101.94 289.29 102.01
  Q 288.50 102.05 288.51 101.27
  Z
  M 296.48 98.29
  A 0.95 0.95 0.0 0 1 296.76 96.44
  L 299.40 96.44
  Q 299.99 96.44 299.99 95.85
  L 300.00 95.27
  Q 300.00 94.79 299.52 94.79
  L 294.93 94.86
  A 0.46 0.45 89.4 0 0 294.49 95.32
  L 294.51 103.01
  Q 294.51 103.51 295.01 103.51
  L 299.79 103.50
  Q 300.34 103.50 300.25 102.96
  L 300.19 102.55
  A 0.66 0.65 85.3 0 0 299.55 102.00
  L 296.65 102.00
  A 0.61 0.61 0.0 0 1 296.05 101.39
  L 296.04 100.61
  A 0.60 0.60 0.0 0 1 296.64 100.01
  L 299.38 99.98
  A 0.62 0.61 -89.5 0 0 299.99 99.37
  L 299.99 98.78
  A 0.56 0.56 0.0 0 0 299.30 98.23
  Q 297.63 98.64 296.48 98.29
  Z
  M 305.70 101.91
  C 305.12 102.28 304.39 102.25 303.91 101.69
  C 302.72 100.32 302.96 96.72 305.10 96.23
  A 0.70 0.69 80.3 0 1 305.94 96.83
  Q 306.06 97.91 307.20 98.04
  A 0.88 0.88 0.0 0 0 308.08 96.75
  Q 306.55 93.90 303.30 94.96
  A 1.23 1.21 -83.2 0 0 302.61 95.51
  Q 301.00 98.20 301.79 101.27
  C 302.38 103.54 304.15 104.55 306.22 103.12
  Q 306.66 102.82 307.04 103.19
  L 307.40 103.55
  Q 307.99 104.12 308.02 103.30
  L 308.16 99.64
  Q 308.18 99.09 307.63 99.10
  L 304.49 99.16
  A 0.65 0.64 53.8 0 0 304.30 100.42
  L 305.58 100.86
  A 0.59 0.59 0.0 0 1 305.70 101.91
  Z
  M 311.85 101.54
  Q 313.82 101.12 314.40 102.86
  A 1.02 0.74 -80.8 0 0 314.50 103.06
  Q 314.88 103.72 315.49 103.71
  Q 316.18 103.71 316.03 103.03
  L 314.35 95.75
  A 1.81 1.81 0.0 0 0 310.82 95.72
  L 309.03 103.02
  A 0.78 0.78 0.0 0 0 310.49 103.55
  L 311.24 102.02
  Q 311.43 101.63 311.85 101.54
  Z
  M 319.02 101.51
  Q 318.93 98.50 319.02 95.49
  Q 319.06 94.49 317.81 94.88
  Q 317.32 95.03 317.32 95.54
  L 317.42 102.95
  Q 317.43 103.48 317.95 103.49
  L 322.48 103.53
  A 0.52 0.51 -88.9 0 0 323.00 103.02
  L 323.02 102.52
  Q 323.04 102.00 322.52 102.00
  L 319.52 102.00
  Q 319.03 102.00 319.02 101.51
  Z
  M 334.92 100.21
  C 337.62 100.67 339.80 98.02 338.29 96.01
  C 337.13 94.46 334.68 94.72 332.90 94.85
  Q 332.49 94.88 332.49 95.29
  L 332.50 103.01
  Q 332.50 103.53 333.01 103.53
  L 333.62 103.54
  Q 334.29 103.55 334.28 102.88
  L 334.27 100.76
  A 0.56 0.56 0.0 0 1 334.92 100.21
  Z
  M 344.78 102.55
  Q 345.04 103.74 346.20 103.71
  A 0.53 0.53 0.0 0 0 346.70 103.01
  Q 345.57 99.62 345.12 95.96
  A 2.05 2.05 0.0 0 0 341.06 95.91
  Q 340.55 99.47 339.52 102.74
  Q 339.34 103.30 339.86 103.58
  Q 340.25 103.80 340.65 103.59
  Q 340.95 103.44 341.26 102.78
  Q 342.08 100.99 344.16 101.83
  Q 344.66 102.03 344.78 102.55
  Z
  M 350.28 100.23
  L 351.39 100.29
  Q 351.96 100.32 351.98 100.89
  L 352.04 103.03
  A 0.86 0.85 48.6 0 0 353.74 103.14
  Q 354.01 101.37 353.38 99.77
  Q 353.22 99.38 353.41 99.01
  C 355.59 94.64 351.05 94.68 348.42 94.91
  A 0.63 0.63 0.0 0 0 347.84 95.54
  L 347.86 102.96
  Q 347.86 103.56 348.46 103.60
  L 348.93 103.63
  A 0.56 0.55 -88.1 0 0 349.52 103.07
  L 349.51 100.97
  Q 349.50 100.18 350.28 100.23
  Z
  M 357.50 96.90
  L 357.51 102.85
  Q 357.51 103.45 358.09 103.57
  L 358.58 103.67
  A 0.56 0.56 0.0 0 0 359.25 103.12
  L 359.26 97.03
  A 0.61 0.60 3.4 0 1 359.94 96.43
  Q 360.93 96.55 361.49 95.89
  A 0.60 0.60 0.0 0 0 361.03 94.90
  L 355.76 94.85
  A 0.58 0.58 0.0 0 0 355.18 95.49
  L 355.23 95.90
  A 0.61 0.60 -5.7 0 0 355.90 96.44
  L 356.90 96.35
  Q 357.50 96.29 357.50 96.90
  Z
  M 364.77 97.24
  Q 365.57 100.08 365.90 103.01
  A 0.61 0.59 86.8 0 0 366.49 103.55
  L 368.49 103.54
  Q 369.01 103.53 369.02 103.02
  Q 369.08 99.26 369.07 95.49
  Q 369.06 94.49 367.77 94.91
  Q 367.34 95.05 367.35 95.50
  L 367.52 101.24
  A 0.18 0.17 39.5 0 1 367.17 101.27
  L 366.12 95.49
  Q 366.02 94.95 365.47 94.92
  L 363.60 94.83
  Q 363.00 94.80 363.00 95.40
  L 362.98 102.98
  Q 362.98 103.71 363.71 103.65
  L 364.29 103.60
  Q 364.84 103.55 364.76 103.01
  Q 364.37 100.14 364.57 97.26
  Q 364.61 96.66 364.77 97.24
  Z
  M 372.46 97.66
  L 372.47 97.22
  A 0.85 0.84 89.7 0 1 373.28 96.39
  L 375.98 96.29
  A 0.69 0.69 0.0 0 0 376.02 94.92
  Q 373.79 94.70 371.51 94.87
  Q 370.93 94.91 370.93 95.49
  L 370.93 102.98
  A 0.55 0.54 -0.0 0 0 371.48 103.52
  L 376.17 103.47
  A 0.68 0.68 0.0 0 0 376.20 102.11
  L 373.06 101.95
  A 0.66 0.65 -1.0 0 1 372.44 101.36
  L 372.38 100.74
  A 0.67 0.67 0.0 0 1 373.03 100.01
  L 375.73 99.93
  A 0.58 0.58 0.0 0 0 376.27 99.52
  L 376.45 98.90
  Q 376.58 98.46 376.12 98.45
  L 373.17 98.39
  Q 372.45 98.38 372.46 97.66
  Z
  M 380.58 100.20
  L 381.90 100.27
  A 0.68 0.68 0.0 0 1 382.54 100.89
  L 382.75 103.16
  A 0.72 0.72 0.0 0 0 384.18 103.24
  Q 384.57 101.35 383.86 99.60
  Q 383.69 99.17 383.92 98.77
  C 386.03 95.07 381.60 94.56 378.86 94.97
  Q 378.37 95.04 378.37 95.54
  L 378.39 103.01
  A 0.76 0.76 0.0 0 0 379.91 103.05
  L 380.04 100.68
  A 0.51 0.51 0.0 0 1 380.58 100.20
  Z
  M 143.9803 99.0102
  A 0.60 0.60 0.0 0 0 143.3814 98.4092
  L 132.8614 98.3908
  A 0.60 0.60 0.0 0 0 132.2603 98.9898
  L 132.2597 99.3498
  A 0.60 0.60 0.0 0 0 132.8586 99.9508
  L 143.3786 99.9692
  A 0.60 0.60 0.0 0 0 143.9797 99.3702
  L 143.9803 99.0102
  Z
  M 400.6895 98.9198
  A 0.50 0.50 0.0 0 0 400.1887 98.4207
  L 389.5087 98.4393
  A 0.50 0.50 0.0 0 0 389.0096 98.9402
  L 389.0105 99.4602
  A 0.50 0.50 0.0 0 0 389.5113 99.9593
  L 400.1913 99.9407
  A 0.50 0.50 0.0 0 0 400.6904 99.4398
  L 400.6895 98.9198
  Z"
/>
<path fill="#5993d3" d="
  M 54.63 50.86
  L 35.76 49.69
  Q 35.71 49.62 35.67 49.43
  Q 35.64 49.24 35.73 49.08
  L 44.38 33.11
  A 1.60 1.59 14.1 0 1 45.78 32.28
  L 64.72 32.29
  A 0.52 0.52 0.0 0 1 65.17 33.08
  L 54.63 50.86
  Z"
/>
<path fill="#203e87" d="
  M 115.04 75.33
  L 107.18 90.26
  A 0.52 0.52 0.0 0 1 106.26 90.27
  L 74.47 33.09
  A 0.56 0.56 0.0 0 1 74.96 32.25
  L 91.23 32.22
  A 1.65 1.64 -14.7 0 1 92.66 33.05
  L 114.99 72.59
  A 2.88 2.86 44.1 0 1 115.04 75.33
  Z"
/>
<rect fill="#f6b738" x="-4.06" y="-3.61" transform="translate(403.65,41.61) rotate(0.5)" width="8.12" height="7.22" rx="0.77"/>
<path fill="#f6b738" d="
  M 103.73 96.58
  L 84.94 95.78
  L 62.62 54.96
  A 2.96 2.96 0.0 0 1 62.67 52.03
  L 70.50 38.75
  A 0.51 0.51 0.0 0 1 71.38 38.75
  Q 85.45 63.58 99.72 88.55
  Q 102.00 92.54 103.51 94.64
  Q 103.81 95.05 103.78 95.56
  L 103.73 96.58
  Z"
/>
<path fill="#f6b738" d="
  M 152.36 72.92
  L 152.33 78.46
  A 0.89 0.89 0.0 0 1 151.45 79.35
  L 126.02 79.49
  A 0.89 0.89 0.0 0 1 125.12 78.60
  L 125.33 39.61
  A 0.89 0.89 0.0 0 1 126.20 38.72
  L 132.57 38.59
  A 0.89 0.89 0.0 0 1 133.48 39.47
  L 133.75 71.07
  A 0.89 0.89 0.0 0 0 134.64 71.95
  L 151.47 72.03
  A 0.89 0.89 0.0 0 1 152.36 72.92
  Z"
/>
<path fill="#f6b738" d="
  M 259.28 72.31
  L 262.19 72.89
  A 0.66 0.66 0.0 0 1 262.72 73.55
  L 262.69 78.47
  Q 262.69 78.92 262.26 79.06
  Q 250.45 82.67 249.79 71.42
  Q 249.40 64.71 249.89 39.22
  Q 249.90 38.65 250.47 38.65
  L 257.09 38.67
  Q 257.75 38.67 257.76 39.34
  L 257.84 70.55
  A 1.80 1.79 -84.3 0 0 259.28 72.31
  Z"
/>
<path fill="#f6b738" d="
  M 292.24 67.22
  L 297.92 78.69
  Q 298.24 79.35 297.51 79.34
  L 289.79 79.27
  A 0.67 0.67 0.0 0 1 289.18 78.88
  L 283.85 67.37
  Q 283.59 66.81 282.97 66.80
  L 276.02 66.75
  A 0.73 0.73 0.0 0 0 275.28 67.48
  L 275.30 78.67
  A 0.60 0.60 0.0 0 1 274.71 79.27
  L 267.85 79.36
  Q 267.26 79.37 267.26 78.78
  L 267.20 39.29
  Q 267.20 38.84 267.65 38.82
  Q 276.35 38.38 284.91 38.62
  Q 291.02 38.79 292.51 39.28
  C 298.07 41.13 298.19 48.15 298.09 53.20
  C 297.97 59.30 297.83 63.43 292.48 66.45
  A 0.58 0.58 0.0 0 0 292.24 67.22
  Z
  M 275.28 47.12
  L 275.26 58.38
  A 1.14 1.14 0.0 0 0 276.40 59.52
  L 286.17 59.54
  A 3.82 3.73 -89.9 0 0 289.90 55.72
  L 289.92 49.82
  A 3.82 3.73 -89.9 0 0 286.19 46.00
  L 276.42 45.98
  A 1.14 1.14 0.0 0 0 275.28 47.12
  Z"
/>
<path fill="#f6b738" d="
  M 373.28 48.25
  A 0.85 0.84 -6.2 0 0 374.28 49.05
  C 381.68 47.64 391.66 46.02 391.74 57.25
  Q 391.82 67.96 391.65 78.68
  A 0.61 0.61 0.0 0 1 391.06 79.28
  L 384.35 79.41
  A 0.57 0.57 0.0 0 1 383.77 78.84
  L 383.75 57.51
  A 2.44 2.43 87.5 0 0 381.12 55.09
  L 374.44 55.65
  A 1.42 1.41 87.8 0 0 373.15 57.05
  L 372.93 78.79
  Q 372.93 79.26 372.46 79.27
  L 365.52 79.38
  A 0.62 0.62 0.0 0 1 364.89 78.77
  L 364.70 39.17
  A 0.63 0.63 0.0 0 1 365.33 38.54
  L 372.39 38.56
  A 0.68 0.67 89.1 0 1 373.06 39.22
  L 373.28 48.25
  Z"
/>
<path fill="#ffffff" d="
  M 275.28 47.12
  A 1.14 1.14 0.0 0 1 276.42 45.98
  L 286.19 46.00
  A 3.82 3.73 -89.9 0 1 289.92 49.82
  L 289.90 55.72
  A 3.82 3.73 -89.9 0 1 286.17 59.54
  L 276.40 59.52
  A 1.14 1.14 0.0 0 1 275.26 58.38
  L 275.28 47.12
  Z"
/>
<path fill="#f6b738" d="
  M 160.88 79.37
  C 154.76 78.30 155.72 67.10 155.93 60.97
  C 156.17 54.11 155.99 48.99 163.75 48.23
  C 170.21 47.60 180.40 46.52 181.45 55.36
  Q 182.16 61.28 181.54 67.23
  A 0.57 0.55 -87.1 0 1 180.99 67.74
  L 165.49 67.73
  A 1.73 1.72 -2.0 0 0 163.76 69.57
  Q 164.03 73.36 166.76 73.27
  Q 173.37 73.05 179.98 72.38
  A 0.64 0.63 -2.9 0 1 180.68 73.01
  L 180.70 78.00
  Q 180.70 78.46 180.25 78.55
  Q 168.85 80.77 160.88 79.37
  Z
  M 165.09 61.35
  L 172.65 61.21
  A 1.20 1.20 0.0 0 0 173.83 59.99
  L 173.79 57.63
  A 3.22 3.16 89.0 0 0 170.57 54.47
  L 166.93 54.53
  A 3.22 3.16 89.0 0 0 163.83 57.81
  L 163.87 60.17
  A 1.20 1.20 0.0 0 0 165.09 61.35
  Z"
/>
<path fill="#f6b738" d="
  M 320.48 76.48
  C 314.09 79.61 306.93 83.46 302.86 74.63
  Q 302.22 73.24 302.42 69.52
  C 303.08 57.71 311.72 60.81 320.04 60.09
  A 0.70 0.69 3.3 0 0 320.67 59.53
  C 321.27 56.63 319.87 54.91 316.84 54.99
  Q 311.20 55.13 305.61 55.62
  A 0.61 0.60 -2.1 0 1 304.95 55.01
  L 305.00 49.78
  Q 305.01 49.36 305.43 49.30
  Q 316.63 47.89 320.51 48.08
  Q 328.35 48.45 328.56 56.37
  Q 328.86 67.55 328.66 78.74
  Q 328.65 79.36 328.03 79.35
  L 322.21 79.30
  A 0.73 0.72 85.1 0 1 321.51 78.71
  L 321.15 76.82
  Q 321.03 76.21 320.48 76.48
  Z
  M 313.06 66.96
  C 309.20 67.51 309.71 72.49 313.00 72.64
  Q 316.39 72.78 320.03 71.48
  Q 320.66 71.26 320.68 70.60
  L 320.78 67.65
  Q 320.80 67.03 320.18 66.95
  Q 316.54 66.47 313.06 66.96
  Z"
/>
<path fill="#f6b738" d="
  M 236.88 76.91
  A 0.78 0.78 0.0 0 0 235.60 76.27
  C 231.16 80.03 222.14 82.40 218.74 75.76
  Q 217.35 73.05 218.07 67.75
  C 218.93 61.42 221.96 60.49 228.04 60.43
  Q 231.67 60.39 235.28 60.35
  Q 235.81 60.34 235.91 59.83
  C 236.68 55.83 235.68 54.96 231.83 55.02
  Q 226.48 55.10 221.15 55.63
  Q 220.52 55.70 220.53 55.07
  L 220.54 49.79
  Q 220.54 49.26 221.07 49.20
  Q 225.87 48.67 230.63 48.41
  C 239.04 47.97 244.00 47.95 244.19 57.59
  Q 244.40 68.22 244.06 78.81
  A 0.57 0.56 -88.9 0 1 243.50 79.36
  L 237.36 79.46
  A 0.57 0.57 0.0 0 1 236.78 78.86
  L 236.88 76.91
  Z
  M 236.1910 68.5123
  A 2.02 2.02 0.0 0 0 234.0416 66.6306
  L 227.8552 67.0415
  A 2.02 2.02 0.0 0 0 225.9735 69.1909
  L 226.0690 70.6277
  A 2.02 2.02 0.0 0 0 228.2184 72.5094
  L 234.4048 72.0985
  A 2.02 2.02 0.0 0 0 236.2865 69.9491
  L 236.1910 68.5123
  Z"
/>
<path fill="#f6b738" d="
  M 351.80 77.00
  A 0.73 0.72 -22.8 0 0 350.66 76.54
  C 341.40 83.25 331.22 80.38 333.15 67.23
  C 334.46 58.25 343.68 60.46 350.87 60.18
  Q 351.47 60.16 351.39 59.56
  L 350.82 55.69
  A 0.98 0.98 0.0 0 0 349.81 54.86
  L 336.67 55.43
  A 0.88 0.87 88.8 0 1 335.76 54.55
  L 335.77 49.76
  Q 335.77 49.20 336.34 49.15
  Q 339.84 48.85 349.75 48.23
  C 357.84 47.72 359.22 52.06 359.28 59.24
  Q 359.37 68.98 359.19 78.71
  A 0.68 0.68 0.0 0 1 358.51 79.38
  L 352.82 79.37
  A 0.76 0.76 0.0 0 1 352.08 78.73
  L 351.80 77.00
  Z
  M 341.12 68.79
  C 340.79 72.79 343.86 72.93 346.64 72.52
  C 349.95 72.02 352.49 71.45 350.89 67.19
  Q 350.75 66.81 350.34 66.82
  L 343.18 66.87
  A 2.08 2.08 0.0 0 0 341.12 68.79
  Z"
/>
<path fill="#f6b738" d="
  M 205.01 77.97
  A 1.21 1.20 77.2 0 0 203.54 77.03
  C 197.99 78.43 188.11 80.11 187.27 71.63
  Q 186.36 62.37 187.01 55.99
  Q 187.74 48.89 195.25 48.76
  Q 203.84 48.62 212.43 48.82
  Q 212.93 48.83 212.94 49.33
  Q 213.34 74.09 213.12 81.98
  Q 212.99 86.56 209.81 88.65
  C 205.65 91.37 193.58 89.51 188.68 88.80
  A 0.53 0.52 5.5 0 1 188.23 88.26
  L 188.43 83.02
  Q 188.46 82.10 189.37 82.25
  Q 196.28 83.35 203.27 82.87
  A 1.17 1.17 0.0 0 0 204.15 82.37
  Q 205.49 80.39 205.01 77.97
  Z
  M 203.48 55.86
  L 196.46 55.88
  A 1.59 1.59 0.0 0 0 194.88 57.48
  L 194.92 68.64
  A 2.62 2.41 -0.2 0 0 197.55 71.04
  L 202.51 71.02
  A 2.62 2.41 -0.2 0 0 205.12 68.60
  L 205.08 57.44
  A 1.59 1.59 0.0 0 0 203.48 55.86
  Z"
/>
<path fill="#203e87" d="
  M 35.76 49.69
  L 54.63 50.86
  L 77.07 91.90
  A 2.08 2.07 45.9 0 1 77.04 93.94
  L 69.05 107.56
  A 0.55 0.55 0.0 0 1 68.09 107.55
  Q 52.03 79.00 35.75 50.50
  Q 35.52 50.10 35.76 49.69
  Z"
/>
<path fill="#f6b738" d="
  M 398.93 57.18
  L 396.51 56.95
  A 0.75 0.75 0.0 0 1 395.83 56.22
  L 395.72 50.75
  A 0.75 0.75 0.0 0 1 396.47 49.98
  L 406.96 50.02
  A 0.75 0.75 0.0 0 1 407.71 50.77
  L 407.63 78.46
  A 0.75 0.75 0.0 0 1 406.91 79.21
  L 400.55 79.44
  A 0.75 0.75 0.0 0 1 399.77 78.70
  L 399.61 57.92
  A 0.75 0.75 0.0 0 0 398.93 57.18
  Z"
/>
<path fill="#ffffff" d="
  M 165.09 61.35
  A 1.20 1.20 0.0 0 1 163.87 60.17
  L 163.83 57.81
  A 3.22 3.16 89.0 0 1 166.93 54.53
  L 170.57 54.47
  A 3.22 3.16 89.0 0 1 173.79 57.63
  L 173.83 59.99
  A 1.20 1.20 0.0 0 1 172.65 61.21
  L 165.09 61.35
  Z"
/>
<path fill="#5993d3" d="
  M 64.56 114.06
  L 47.54 114.09
  A 0.51 0.51 0.0 0 1 47.09 113.83
  L 23.88 72.66
  A 0.51 0.51 0.0 0 1 23.87 72.17
  L 32.35 56.12
  A 0.51 0.51 0.0 0 1 33.25 56.11
  L 65.00 113.30
  A 0.51 0.51 0.0 0 1 64.56 114.06
  Z"
/>
<path fill="#ffffff" d="
  M 203.48 55.86
  A 1.59 1.59 0.0 0 1 205.08 57.44
  L 205.12 68.60
  A 2.62 2.41 -0.2 0 1 202.51 71.02
  L 197.55 71.04
  A 2.62 2.41 -0.2 0 1 194.92 68.64
  L 194.88 57.48
  A 1.59 1.59 0.0 0 1 196.46 55.88
  L 203.48 55.86
  Z"
/>
<rect fill="#ffffff" x="-5.12" y="-2.74" transform="translate(231.13,69.57) rotate(-3.8)" width="10.24" height="5.48" rx="2.02"/>
<path fill="#ffffff" d="
  M 313.00 72.64
  C 309.71 72.49 309.20 67.51 313.06 66.96
  Q 316.54 66.47 320.18 66.95
  Q 320.80 67.03 320.78 67.65
  L 320.68 70.60
  Q 320.66 71.26 320.03 71.48
  Q 316.39 72.78 313.00 72.64
  Z"
/>
<path fill="#ffffff" d="
  M 346.64 72.52
  C 343.86 72.93 340.79 72.79 341.12 68.79
  A 2.08 2.08 0.0 0 1 343.18 66.87
  L 350.34 66.82
  Q 350.75 66.81 350.89 67.19
  C 352.49 71.45 349.95 72.02 346.64 72.52
  Z"
/>
<path fill="#203e87" d="
  M 213.43 101.98
  A 0.95 0.95 0.0 0 0 213.97 100.17
  L 211.32 99.15
  A 2.05 2.05 0.0 0 1 210.74 95.66
  Q 213.58 93.29 216.02 95.94
  A 1.13 0.78 78.9 0 1 215.25 97.72
  L 213.71 96.35
  Q 213.18 95.88 212.67 96.37
  L 211.92 97.09
  A 0.50 0.50 0.0 0 0 212.13 97.93
  L 214.92 98.75
  A 2.38 2.37 -79.8 0 1 216.61 101.19
  C 216.36 104.74 211.93 104.08 210.12 101.93
  A 1.22 0.93 76.1 0 1 210.96 99.99
  Q 211.72 100.36 211.75 101.12
  A 0.67 0.66 -85.4 0 0 212.26 101.73
  L 213.43 101.98
  Z"
/>
<path fill="#203e87" d="
  M 152.71 98.22
  L 153.78 95.38
  A 0.89 0.89 0.0 0 1 154.58 94.81
  L 155.18 94.80
  A 0.57 0.57 0.0 0 1 155.67 95.68
  Q 153.36 99.14 152.79 103.24
  A 0.63 0.63 0.0 0 1 151.54 103.25
  Q 150.92 99.06 148.60 95.46
  A 0.45 0.45 0.0 0 1 149.08 94.78
  L 150.19 95.03
  Q 150.76 95.16 150.82 95.75
  Q 150.95 97.22 151.91 98.36
  Q 152.43 98.98 152.71 98.22
  Z"
/>
<path fill="#203e87" d="
  M 162.9507 100.7786
  A 2.91 2.91 0.0 0 1 160.0054 103.6528
  L 159.4854 103.6465
  A 2.91 2.91 0.0 0 1 156.6112 100.7012
  L 156.6493 97.5814
  A 2.91 2.91 0.0 0 1 159.5946 94.7072
  L 160.1146 94.7135
  A 2.91 2.91 0.0 0 1 162.9888 97.6588
  L 162.9507 100.7786
  Z
  M 161.2989 97.6688
  A 1.43 1.43 0.0 0 0 159.8491 96.2589
  L 159.6491 96.2617
  A 1.43 1.43 0.0 0 0 158.2392 97.7115
  L 158.2811 100.7112
  A 1.43 1.43 0.0 0 0 159.7309 102.1211
  L 159.9309 102.1183
  A 1.43 1.43 0.0 0 0 161.3408 100.6685
  L 161.2989 97.6688
  Z"
/>
<path fill="#203e87" d="
  M 168.25 101.90
  A 1.01 1.01 0.0 0 0 168.93 100.96
  L 169.00 95.46
  A 0.66 0.65 -2.9 0 1 169.59 94.81
  Q 170.02 94.76 170.34 95.04
  Q 170.60 95.27 170.66 95.79
  C 170.86 97.71 171.10 102.14 169.14 103.34
  C 166.93 104.69 164.39 103.10 164.29 100.50
  Q 164.20 97.93 164.25 95.34
  Q 164.26 94.75 164.85 94.78
  L 165.38 94.81
  Q 166.03 94.84 166.01 95.48
  Q 165.97 97.94 166.05 100.39
  C 166.10 101.72 166.99 102.32 168.25 101.90
  Z"
/>
<path fill="#203e87" d="
  M 175.87 100.40
  L 174.63 100.17
  Q 174.07 100.07 174.03 100.64
  L 173.87 102.99
  A 0.92 0.92 0.0 0 1 172.04 102.92
  L 172.07 95.43
  Q 172.08 94.68 172.83 94.73
  L 176.82 95.02
  Q 177.59 95.07 177.86 95.80
  Q 178.42 97.37 177.77 98.91
  Q 177.59 99.34 177.72 99.80
  Q 178.23 101.54 177.87 103.34
  A 0.55 0.55 0.0 0 1 176.95 103.63
  Q 175.95 102.67 176.35 101.18
  A 0.63 0.62 -76.7 0 0 175.87 100.40
  Z
  M 173.93 96.81
  L 173.93 98.19
  A 0.44 0.44 0.0 0 0 174.36 98.64
  L 174.99 98.64
  A 1.51 1.04 0.3 0 0 176.51 97.61
  L 176.51 97.43
  A 1.51 1.04 0.3 0 0 175.01 96.38
  L 174.38 96.38
  A 0.44 0.44 0.0 0 0 173.93 96.81
  Z"
/>
<path fill="#203e87" d="
  M 189.05 101.21
  Q 189.31 102.34 189.10 103.03
  A 0.93 0.92 -36.4 0 1 187.29 102.76
  L 187.32 95.74
  Q 187.32 95.19 187.85 95.02
  Q 190.88 94.03 192.89 96.02
  C 193.79 96.91 193.73 98.55 192.88 99.40
  C 192.07 100.22 190.59 100.04 189.50 100.41
  A 0.69 0.68 -16.0 0 0 189.05 101.21
  Z
  M 191.9005 97.7055
  A 1.44 1.19 6.6 0 0 190.6068 96.3579
  A 1.44 1.19 6.6 0 0 189.0395 97.3745
  A 1.44 1.19 6.6 0 0 190.3332 98.7221
  A 1.44 1.19 6.6 0 0 191.9005 97.7055
  Z"
/>
<path fill="#203e87" d="
  M 197.29 98.40
  L 200.20 98.44
  A 0.62 0.62 0.0 0 1 200.79 99.21
  Q 200.74 99.38 200.71 99.55
  A 0.49 0.48 -85.6 0 1 200.25 99.95
  L 197.38 100.00
  Q 196.76 100.01 196.77 100.62
  L 196.79 101.44
  A 0.59 0.58 88.6 0 0 197.39 102.02
  Q 199.06 101.98 200.41 102.01
  A 0.73 0.73 0.0 0 1 200.40 103.47
  L 195.77 103.54
  A 0.52 0.52 0.0 0 1 195.25 103.02
  L 195.25 95.47
  A 0.60 0.59 -1.0 0 1 195.83 94.88
  Q 198.14 94.79 200.53 94.87
  A 0.81 0.67 -39.3 0 1 200.25 96.33
  L 197.56 96.36
  A 0.63 0.63 0.0 0 0 196.95 96.88
  L 196.79 97.78
  Q 196.68 98.39 197.29 98.40
  Z"
/>
<path fill="#203e87" d="
  M 204.38 100.80
  L 204.46 103.12
  A 0.52 0.51 3.7 0 1 203.86 103.64
  L 203.35 103.56
  Q 202.75 103.46 202.75 102.85
  L 202.74 95.43
  Q 202.74 94.86 203.32 94.86
  L 207.02 94.86
  A 1.90 1.89 -79.5 0 1 208.78 97.43
  Q 208.62 97.85 208.46 98.26
  Q 208.27 98.74 208.32 99.24
  L 208.70 103.29
  Q 208.80 104.36 207.90 103.78
  L 207.31 103.41
  Q 206.85 103.12 206.97 102.58
  Q 207.57 99.82 204.91 100.17
  A 0.62 0.61 -5.2 0 0 204.38 100.80
  Z
  M 207.1588 97.5782
  A 1.45 1.21 2.3 0 0 205.7586 96.3110
  A 1.45 1.21 2.3 0 0 204.2612 97.4618
  A 1.45 1.21 2.3 0 0 205.6614 98.7290
  A 1.45 1.21 2.3 0 0 207.1588 97.5782
  Z"
/>
<path fill="#203e87" d="
  M 224.0979 100.6933
  A 2.96 2.96 0.0 0 1 221.1535 103.6687
  L 220.6935 103.6711
  A 2.96 2.96 0.0 0 1 217.7180 100.7267
  L 217.7021 97.6867
  A 2.96 2.96 0.0 0 1 220.6465 94.7113
  L 221.1065 94.7089
  A 2.96 2.96 0.0 0 1 224.0820 97.6533
  L 224.0979 100.6933
  Z
  M 222.4174 97.5994
  A 1.39 1.39 0.0 0 0 220.9727 96.2663
  L 220.6729 96.2784
  A 1.39 1.39 0.0 0 0 219.3398 97.7230
  L 219.4626 100.7806
  A 1.39 1.39 0.0 0 0 220.9073 102.1137
  L 221.2071 102.1016
  A 1.39 1.39 0.0 0 0 222.5402 100.6570
  L 222.4174 97.5994
  Z"
/>
<path fill="#203e87" d="
  M 227.17 97.51
  L 226.98 103.09
  Q 226.96 103.64 226.41 103.62
  L 226.05 103.61
  Q 225.51 103.59 225.51 103.05
  L 225.50 95.29
  Q 225.50 94.83 225.96 94.84
  L 228.25 94.92
  Q 228.82 94.94 228.86 95.50
  L 229.31 102.16
  Q 229.32 102.18 229.33 102.17
  L 229.60 102.15
  Q 229.70 102.14 229.70 102.04
  L 230.06 95.17
  Q 230.08 94.66 230.58 94.78
  L 231.13 94.92
  Q 231.68 95.06 231.67 95.62
  L 231.58 102.74
  Q 231.58 103.16 231.19 103.31
  Q 229.24 104.09 228.43 102.91
  C 227.73 101.89 227.86 98.92 227.70 97.49
  A 0.27 0.27 0.0 0 0 227.17 97.51
  Z"
/>
<path fill="#203e87" d="
  M 236.92 101.59
  Q 234.56 100.89 234.44 103.17
  Q 234.40 103.93 233.68 103.66
  L 233.17 103.47
  A 0.69 0.68 19.0 0 1 232.75 102.63
  Q 233.69 99.45 234.08 95.91
  A 2.01 2.01 0.0 0 1 238.04 95.71
  L 239.66 103.29
  A 0.49 0.49 0.0 0 1 238.80 103.69
  L 237.52 102.00
  Q 237.29 101.70 236.92 101.59
  Z
  M 234.99 99.50
  A 0.42 0.42 0.0 0 0 235.34 100.06
  L 236.78 100.19
  A 0.42 0.42 0.0 0 0 237.23 99.70
  L 236.77 96.82
  A 0.42 0.42 0.0 0 0 235.96 96.75
  L 234.99 99.50
  Z"
/>
<path fill="#203e87" d="
  M 242.61 100.38
  A 1.51 1.50 -86.2 0 0 243.90 101.86
  L 246.60 102.24
  A 0.62 0.62 0.0 0 1 246.51 103.48
  L 241.75 103.51
  A 0.76 0.76 0.0 0 1 240.99 102.75
  L 240.98 95.50
  A 0.68 0.68 0.0 0 1 241.51 94.84
  Q 242.08 94.71 242.45 95.12
  Q 242.71 95.40 242.69 95.95
  Q 242.61 98.40 242.61 100.38
  Z"
/>
<path fill="#203e87" d="
  M 249.96 96.51
  L 249.07 96.44
  Q 248.38 96.39 248.36 95.70
  L 248.35 95.41
  Q 248.34 94.84 248.90 94.84
  L 253.64 94.84
  A 0.76 0.76 0.0 0 1 253.78 96.34
  L 252.94 96.50
  Q 252.26 96.62 252.26 97.31
  L 252.25 101.52
  A 0.47 0.47 0.0 0 0 252.79 101.99
  Q 253.94 101.84 254.60 102.75
  A 0.46 0.46 0.0 0 1 254.22 103.48
  L 248.58 103.47
  A 0.59 0.59 0.0 0 1 248.45 102.31
  L 250.37 101.87
  A 0.32 0.32 0.0 0 0 250.61 101.56
  L 250.61 97.21
  Q 250.61 96.55 249.96 96.51
  Z"
/>
<path fill="#203e87" d="
  M 260.00 96.37
  L 256.73 96.47
  Q 256.24 96.48 256.01 96.06
  Q 255.38 94.90 256.49 94.84
  Q 259.11 94.70 260.76 94.85
  A 1.77 1.76 -62.6 0 1 261.74 97.95
  L 257.78 101.33
  Q 257.00 102.00 258.02 102.00
  L 261.67 102.00
  Q 262.14 102.00 262.27 102.45
  L 262.38 102.85
  Q 262.56 103.48 261.90 103.49
  L 256.67 103.50
  Q 256.18 103.51 256.03 103.04
  C 255.07 100.14 258.74 98.53 260.28 97.05
  A 0.40 0.39 -67.8 0 0 260.00 96.37
  Z"
/>
<path fill="#203e87" d="
  M 266.64 100.01
  A 1.00 0.99 -45.3 0 0 266.65 102.00
  L 269.14 102.03
  Q 269.72 102.04 269.75 102.61
  Q 269.76 102.81 269.76 103.00
  Q 269.75 103.50 269.26 103.50
  L 264.43 103.51
  Q 263.84 103.51 263.85 102.93
  L 263.89 95.46
  Q 263.89 94.80 264.55 94.81
  L 268.98 94.83
  A 0.74 0.73 -46.2 0 1 269.01 96.30
  L 266.23 96.44
  A 0.98 0.98 0.0 0 0 266.27 98.39
  L 268.94 98.41
  Q 269.70 98.42 269.42 99.12
  L 269.26 99.56
  A 0.62 0.62 0.0 0 1 268.70 99.95
  L 266.64 100.01
  Z"
/>
<path fill="#203e87" d="
  M 271.88 101.35
  Q 272.52 98.33 271.23 95.66
  Q 270.95 95.07 271.59 94.94
  Q 274.43 94.31 276.88 95.67
  A 1.16 1.15 13.9 0 1 277.47 96.64
  C 277.52 98.48 278.00 101.20 276.69 102.55
  Q 274.80 104.49 271.35 103.12
  Q 270.74 102.88 271.20 102.40
  L 271.47 102.11
  Q 271.78 101.78 271.88 101.35
  Z
  M 273.62 96.72
  L 273.62 101.56
  A 0.41 0.41 0.0 0 0 274.03 101.97
  L 274.18 101.97
  A 2.15 1.70 90.0 0 0 275.88 99.82
  L 275.88 98.46
  A 2.15 1.70 -90.0 0 0 274.18 96.31
  L 274.03 96.31
  A 0.41 0.41 0.0 0 0 273.62 96.72
  Z"
/>
<path fill="#203e87" d="
  M 289.29 102.01
  Q 290.70 101.94 292.09 102.08
  A 0.71 0.71 0.0 0 1 292.02 103.49
  L 287.28 103.52
  Q 286.80 103.52 286.80 103.04
  L 286.85 95.45
  Q 286.86 94.75 287.55 94.84
  L 288.00 94.90
  Q 288.52 94.98 288.52 95.50
  L 288.51 101.27
  Q 288.50 102.05 289.29 102.01
  Z"
/>
<path fill="#203e87" d="
  M 296.48 98.29
  Q 297.63 98.64 299.30 98.23
  A 0.56 0.56 0.0 0 1 299.99 98.78
  L 299.99 99.37
  A 0.62 0.61 -89.5 0 1 299.38 99.98
  L 296.64 100.01
  A 0.60 0.60 0.0 0 0 296.04 100.61
  L 296.05 101.39
  A 0.61 0.61 0.0 0 0 296.65 102.00
  L 299.55 102.00
  A 0.66 0.65 85.3 0 1 300.19 102.55
  L 300.25 102.96
  Q 300.34 103.50 299.79 103.50
  L 295.01 103.51
  Q 294.51 103.51 294.51 103.01
  L 294.49 95.32
  A 0.46 0.45 89.4 0 1 294.93 94.86
  L 299.52 94.79
  Q 300.00 94.79 300.00 95.27
  L 299.99 95.85
  Q 299.99 96.44 299.40 96.44
  L 296.76 96.44
  A 0.95 0.95 0.0 0 0 296.48 98.29
  Z"
/>
<path fill="#203e87" d="
  M 305.58 100.86
  L 304.30 100.42
  A 0.65 0.64 53.8 0 1 304.49 99.16
  L 307.63 99.10
  Q 308.18 99.09 308.16 99.64
  L 308.02 103.30
  Q 307.99 104.12 307.40 103.55
  L 307.04 103.19
  Q 306.66 102.82 306.22 103.12
  C 304.15 104.55 302.38 103.54 301.79 101.27
  Q 301.00 98.20 302.61 95.51
  A 1.23 1.21 -83.2 0 1 303.30 94.96
  Q 306.55 93.90 308.08 96.75
  A 0.88 0.88 0.0 0 1 307.20 98.04
  Q 306.06 97.91 305.94 96.83
  A 0.70 0.69 80.3 0 0 305.10 96.23
  C 302.96 96.72 302.72 100.32 303.91 101.69
  C 304.39 102.25 305.12 102.28 305.70 101.91
  A 0.59 0.59 0.0 0 0 305.58 100.86
  Z"
/>
<path fill="#203e87" d="
  M 311.24 102.02
  L 310.49 103.55
  A 0.78 0.78 0.0 0 1 309.03 103.02
  L 310.82 95.72
  A 1.81 1.81 0.0 0 1 314.35 95.75
  L 316.03 103.03
  Q 316.18 103.71 315.49 103.71
  Q 314.88 103.72 314.50 103.06
  A 1.02 0.74 -80.8 0 1 314.40 102.86
  Q 313.82 101.12 311.85 101.54
  Q 311.43 101.63 311.24 102.02
  Z
  M 313.24 98.25
  L 312.92 96.54
  A 0.38 0.38 0.0 0 0 312.18 96.54
  L 311.62 99.51
  A 0.99 0.88 -36.1 0 0 313.49 99.69
  Q 313.55 99.47 313.46 99.19
  A 7.80 1.89 -89.6 0 1 313.24 98.25
  Z"
/>
<path fill="#203e87" d="
  M 319.52 102.00
  L 322.52 102.00
  Q 323.04 102.00 323.02 102.52
  L 323.00 103.02
  A 0.52 0.51 -88.9 0 1 322.48 103.53
  L 317.95 103.49
  Q 317.43 103.48 317.42 102.95
  L 317.32 95.54
  Q 317.32 95.03 317.81 94.88
  Q 319.06 94.49 319.02 95.49
  Q 318.93 98.50 319.02 101.51
  Q 319.03 102.00 319.52 102.00
  Z"
/>
<path fill="#203e87" d="
  M 334.27 100.76
  L 334.28 102.88
  Q 334.29 103.55 333.62 103.54
  L 333.01 103.53
  Q 332.50 103.53 332.50 103.01
  L 332.49 95.29
  Q 332.49 94.88 332.90 94.85
  C 334.68 94.72 337.13 94.46 338.29 96.01
  C 339.80 98.02 337.62 100.67 334.92 100.21
  A 0.56 0.56 0.0 0 0 334.27 100.76
  Z
  M 336.8987 97.3069
  A 1.40 1.19 -10.0 0 0 335.3134 96.3781
  A 1.40 1.19 -10.0 0 0 334.1413 97.7931
  A 1.40 1.19 -10.0 0 0 335.7266 98.7219
  A 1.40 1.19 -10.0 0 0 336.8987 97.3069
  Z"
/>
<path fill="#203e87" d="
  M 344.16 101.83
  Q 342.08 100.99 341.26 102.78
  Q 340.95 103.44 340.65 103.59
  Q 340.25 103.80 339.86 103.58
  Q 339.34 103.30 339.52 102.74
  Q 340.55 99.47 341.06 95.91
  A 2.05 2.05 0.0 0 1 345.12 95.96
  Q 345.57 99.62 346.70 103.01
  A 0.53 0.53 0.0 0 1 346.20 103.71
  Q 345.04 103.74 344.78 102.55
  Q 344.66 102.03 344.16 101.83
  Z
  M 343.64 96.58
  A 0.38 0.38 0.0 0 0 342.89 96.55
  L 342.15 99.44
  Q 341.97 100.15 342.70 100.10
  L 343.58 100.04
  Q 344.16 100.00 344.07 99.42
  L 343.64 96.58
  Z"
/>
<path fill="#203e87" d="
  M 349.51 100.97
  L 349.52 103.07
  A 0.56 0.55 -88.1 0 1 348.93 103.63
  L 348.46 103.60
  Q 347.86 103.56 347.86 102.96
  L 347.84 95.54
  A 0.63 0.63 0.0 0 1 348.42 94.91
  C 351.05 94.68 355.59 94.64 353.41 99.01
  Q 353.22 99.38 353.38 99.77
  Q 354.01 101.37 353.74 103.14
  A 0.86 0.85 48.6 0 1 352.04 103.03
  L 351.98 100.89
  Q 351.96 100.32 351.39 100.29
  L 350.28 100.23
  Q 349.50 100.18 349.51 100.97
  Z
  M 352.1639 97.3076
  A 0.87 0.87 0.0 0 0 351.3454 96.3890
  L 350.4070 96.3349
  A 0.87 0.87 0.0 0 0 349.4883 97.1533
  L 349.4561 97.7124
  A 0.87 0.87 0.0 0 0 350.2746 98.6310
  L 351.2130 98.6851
  A 0.87 0.87 0.0 0 0 352.1317 97.8667
  L 352.1639 97.3076
  Z"
/>
<path fill="#203e87" d="
  M 356.90 96.35
  L 355.90 96.44
  A 0.61 0.60 -5.7 0 1 355.23 95.90
  L 355.18 95.49
  A 0.58 0.58 0.0 0 1 355.76 94.85
  L 361.03 94.90
  A 0.60 0.60 0.0 0 1 361.49 95.89
  Q 360.93 96.55 359.94 96.43
  A 0.61 0.60 3.4 0 0 359.26 97.03
  L 359.25 103.12
  A 0.56 0.56 0.0 0 1 358.58 103.67
  L 358.09 103.57
  Q 357.51 103.45 357.51 102.85
  L 357.50 96.90
  Q 357.50 96.29 356.90 96.35
  Z"
/>
<path fill="#203e87" d="
  M 364.57 97.26
  Q 364.37 100.14 364.76 103.01
  Q 364.84 103.55 364.29 103.60
  L 363.71 103.65
  Q 362.98 103.71 362.98 102.98
  L 363.00 95.40
  Q 363.00 94.80 363.60 94.83
  L 365.47 94.92
  Q 366.02 94.95 366.12 95.49
  L 367.17 101.27
  A 0.18 0.17 39.5 0 0 367.52 101.24
  L 367.35 95.50
  Q 367.34 95.05 367.77 94.91
  Q 369.06 94.49 369.07 95.49
  Q 369.08 99.26 369.02 103.02
  Q 369.01 103.53 368.49 103.54
  L 366.49 103.55
  A 0.61 0.59 86.8 0 1 365.90 103.01
  Q 365.57 100.08 364.77 97.24
  Q 364.61 96.66 364.57 97.26
  Z"
/>
<path fill="#203e87" d="
  M 373.17 98.39
  L 376.12 98.45
  Q 376.58 98.46 376.45 98.90
  L 376.27 99.52
  A 0.58 0.58 0.0 0 1 375.73 99.93
  L 373.03 100.01
  A 0.67 0.67 0.0 0 0 372.38 100.74
  L 372.44 101.36
  A 0.66 0.65 -1.0 0 0 373.06 101.95
  L 376.20 102.11
  A 0.68 0.68 0.0 0 1 376.17 103.47
  L 371.48 103.52
  A 0.55 0.54 0.0 0 1 370.93 102.98
  L 370.93 95.49
  Q 370.93 94.91 371.51 94.87
  Q 373.79 94.70 376.02 94.92
  A 0.69 0.69 0.0 0 1 375.98 96.29
  L 373.28 96.39
  A 0.85 0.84 89.7 0 0 372.47 97.22
  L 372.46 97.66
  Q 372.45 98.38 373.17 98.39
  Z"
/>
<path fill="#203e87" d="
  M 380.04 100.68
  L 379.91 103.05
  A 0.76 0.76 0.0 0 1 378.39 103.01
  L 378.37 95.54
  Q 378.37 95.04 378.86 94.97
  C 381.60 94.56 386.03 95.07 383.92 98.77
  Q 383.69 99.17 383.86 99.60
  Q 384.57 101.35 384.18 103.24
  A 0.72 0.72 0.0 0 1 382.75 103.16
  L 382.54 100.89
  A 0.68 0.68 0.0 0 0 381.90 100.27
  L 380.58 100.20
  A 0.51 0.51 0.0 0 0 380.04 100.68
  Z
  M 380.06 96.73
  L 380.04 98.27
  A 0.43 0.43 0.0 0 0 380.47 98.70
  L 380.76 98.70
  A 2.12 1.10 0.6 0 0 382.89 97.62
  L 382.89 97.42
  A 2.12 1.10 0.6 0 0 380.78 96.30
  L 380.49 96.30
  A 0.43 0.43 0.0 0 0 380.06 96.73
  Z"
/>
<path fill="#203e87" d="
  M 84.94 95.78
  L 103.73 96.58
  Q 103.72 96.28 103.96 96.71
  Q 104.06 96.88 103.96 97.06
  L 94.93 113.54
  A 0.92 0.92 0.0 0 1 94.12 114.02
  L 74.77 114.02
  A 0.38 0.38 0.0 0 1 74.44 113.45
  L 84.94 95.78
  Z"
/>
<rect fill="#ffffff" x="-1.53" y="-2.93" transform="translate(159.79,99.19) rotate(-0.8)" width="3.06" height="5.86" rx="1.43"/>
<path fill="#ffffff" d="
  M 173.93 96.81
  A 0.44 0.44 0.0 0 1 174.38 96.38
  L 175.01 96.38
  A 1.51 1.04 0.3 0 1 176.51 97.43
  L 176.51 97.61
  A 1.51 1.04 0.3 0 1 174.99 98.64
  L 174.36 98.64
  A 0.44 0.44 0.0 0 1 173.93 98.19
  L 173.93 96.81
  Z"
/>
<ellipse fill="#ffffff" cx="0.00" cy="0.00" transform="translate(190.47,97.54) rotate(6.6)" rx="1.44" ry="1.19"/>
<rect fill="#ffffff" x="-1.54" y="-2.92" transform="translate(220.94,99.19) rotate(-2.3)" width="3.08" height="5.84" rx="1.39"/>
<path fill="#ffffff" d="
  M 273.62 96.72
  A 0.41 0.41 0.0 0 1 274.03 96.31
  L 274.18 96.31
  A 2.15 1.70 90.0 0 1 275.88 98.46
  L 275.88 99.82
  A 2.15 1.70 90.0 0 1 274.18 101.97
  L 274.03 101.97
  A 0.41 0.41 0.0 0 1 273.62 101.56
  L 273.62 96.72
  Z"
/>
<path fill="#ffffff" d="
  M 313.46 99.19
  Q 313.55 99.47 313.49 99.69
  A 0.99 0.88 -36.1 0 1 311.62 99.51
  L 312.18 96.54
  A 0.38 0.38 0.0 0 1 312.92 96.54
  L 313.24 98.25
  A 7.80 1.89 -89.6 0 0 313.46 99.19
  Z"
/>
<ellipse fill="#ffffff" cx="0.00" cy="0.00" transform="translate(335.52,97.55) rotate(-10.0)" rx="1.40" ry="1.19"/>
<path fill="#ffffff" d="
  M 343.64 96.58
  L 344.07 99.42
  Q 344.16 100.00 343.58 100.04
  L 342.70 100.10
  Q 341.97 100.15 342.15 99.44
  L 342.89 96.55
  A 0.38 0.38 0.0 0 1 343.64 96.58
  Z"
/>
<rect fill="#ffffff" x="-1.34" y="-1.15" transform="translate(350.81,97.51) rotate(3.3)" width="2.68" height="2.30" rx="0.87"/>
<path fill="#ffffff" d="
  M 380.06 96.73
  A 0.43 0.43 0.0 0 1 380.49 96.30
  L 380.78 96.30
  A 2.12 1.10 0.6 0 1 382.89 97.42
  L 382.89 97.62
  A 2.12 1.10 0.6 0 1 380.76 98.70
  L 380.47 98.70
  A 0.43 0.43 0.0 0 1 380.04 98.27
  L 380.06 96.73
  Z"
/>
<ellipse fill="#ffffff" cx="0.00" cy="0.00" transform="translate(205.71,97.52) rotate(2.3)" rx="1.45" ry="1.21"/>
<path fill="#ffffff" d="
  M 234.99 99.50
  L 235.96 96.75
  A 0.42 0.42 0.0 0 1 236.77 96.82
  L 237.23 99.70
  A 0.42 0.42 0.0 0 1 236.78 100.19
  L 235.34 100.06
  A 0.42 0.42 0.0 0 1 234.99 99.50
  Z"
/>
<rect fill="#203e87" x="-5.86" y="-0.78" transform="translate(138.12,99.18) rotate(0.1)" width="11.72" height="1.56" rx="0.60"/>
<rect fill="#203e87" x="-5.84" y="-0.76" transform="translate(394.85,99.19) rotate(-0.1)" width="11.68" height="1.52" rx="0.50"/>
</svg>
